<svg width="313" height="53" viewBox="0 0 313 53" fill="none" xmlns="http://www.w3.org/2000/svg">
<path d="M0 51.625H297.892M164.275 39.3333H312.208" stroke="black"/>
<g filter="url(#filter0_d_6_12)">
<path d="M12.2125 30.7688C10.2721 30.7688 8.56779 30.478 7.09942 29.8965C5.63106 29.3414 4.49046 28.4294 3.67761 27.1606C2.86477 25.8918 2.45834 24.2 2.45834 22.0853C2.45834 19.9707 2.79921 17.9088 3.48095 15.8999C4.18892 13.8645 5.15909 11.9745 6.39146 10.2298C7.62384 8.48521 9.06598 6.95206 10.7179 5.63037C12.396 4.30869 14.2053 3.27778 16.1456 2.53763C18.0859 1.79749 20.1049 1.42742 22.2026 1.42742C24.5363 1.42742 26.4373 1.82392 27.9056 2.61693C29.374 3.40995 30.449 4.49373 31.1308 5.86828C31.8387 7.2164 32.1927 8.73633 32.1927 10.4281C32.1927 12.675 31.6552 15.0276 30.5801 17.4859C29.4789 19.9971 28.0367 22.2572 26.2537 24.2661C24.4707 26.2751 22.3861 27.8611 20.0001 29.0242C17.6402 30.1873 15.0443 30.7688 12.2125 30.7688ZM15.7916 28.6673C17.3386 28.2444 18.8595 27.4646 20.354 26.328C21.8486 25.1913 23.199 23.83 24.4052 22.244C25.6113 20.6579 26.5684 18.9926 27.2763 17.248C28.3776 14.5782 28.9282 12.067 28.9282 9.71438C28.9282 9.34431 28.902 8.98746 28.8496 8.64382C28.8234 8.30018 28.784 7.96976 28.7316 7.65255C28.4432 6.0401 27.7745 4.90345 26.7257 4.24261C25.6769 3.58176 24.4969 3.25134 23.1859 3.25134C21.8224 3.25134 20.4327 3.5289 19.0168 4.084C17.6009 4.61268 16.3816 5.27352 15.359 6.06653C14.1004 7.07101 12.9336 8.22088 11.8585 9.51613C10.7834 10.8114 9.87883 12.1859 9.14465 13.6398C8.51535 14.9086 8.00404 16.2964 7.61073 17.8031C7.24364 19.2834 7.06009 20.724 7.06009 22.125C7.06009 23.3938 7.24364 24.5569 7.61073 25.6142C7.97782 26.6716 8.5809 27.5307 9.41996 28.1915C10.259 28.8259 11.3734 29.1431 12.7631 29.1431C13.6546 29.1431 14.6641 28.9845 15.7916 28.6673Z" fill="black"/>
<path d="M42.1908 29.7379C41.2993 29.7379 40.6831 29.4736 40.3423 28.9449C40.0276 28.3898 39.8703 27.7554 39.8703 27.0417C39.8703 26.1694 40.0407 25.1252 40.3816 23.9093C40.7225 22.6669 41.1158 21.4245 41.5615 20.1821C42.0335 18.9133 42.453 17.7899 42.8201 16.8118C42.925 16.5739 42.9775 16.3228 42.9775 16.0585C42.9775 15.7677 42.8857 15.5562 42.7021 15.4241C42.5186 15.2919 42.2826 15.2258 41.9942 15.2258C41.5746 15.2258 41.1027 15.358 40.5783 15.6223C39.7654 16.0452 38.9919 16.7193 38.2577 17.6445C37.5235 18.5697 36.9336 19.5345 36.4878 20.539C35.9896 21.6756 35.5439 22.8123 35.1506 23.9489C34.7572 25.0856 34.4426 26.0108 34.2066 26.7245C34.0493 27.1738 33.9051 27.6364 33.774 28.1122C33.6429 28.588 33.5118 29.0506 33.3807 29.5H29.5655C29.5655 29.5 29.6573 29.1696 29.8408 28.5087C29.9982 27.8479 30.2079 27.1871 30.4701 26.5262C30.9159 25.3631 31.3616 24.2 31.8074 23.037C32.2794 21.8739 32.6858 20.843 33.0267 19.9442C33.1316 19.6799 33.2889 19.1909 33.4986 18.4772C33.7346 17.737 33.9444 16.9704 34.1279 16.1774C34.3377 15.3844 34.4426 14.7368 34.4426 14.2345C34.4426 13.9438 34.4033 13.7455 34.3246 13.6398C34.5606 13.6398 34.8228 13.6398 35.1112 13.6398C35.4259 13.6134 35.7143 13.6001 35.9765 13.6001C36.3436 13.6001 36.6845 13.6134 36.9991 13.6398C37.34 13.6662 37.5629 13.7323 37.6677 13.838C37.9824 14.0759 38.1397 14.4196 38.1397 14.869C38.1397 15.1862 38.0742 15.5034 37.9431 15.8206C37.8382 16.1378 37.7595 16.4021 37.7071 16.6136C38.0742 16.2699 38.4544 15.9395 38.8477 15.6223C39.241 15.3051 39.8441 14.8954 40.6569 14.3931C41.1289 14.1024 41.7189 13.8645 42.4268 13.6794C43.1348 13.4944 43.7772 13.4019 44.3541 13.4019C45.8486 13.4019 46.5959 14.1024 46.5959 15.5034C46.5959 15.7413 46.5697 16.0056 46.5173 16.2964C46.491 16.5871 46.4124 16.9043 46.2813 17.248C46.1502 17.6709 45.9404 18.2525 45.652 18.9926C45.3636 19.7328 45.062 20.5258 44.7474 21.3716C44.4589 22.1911 44.2098 22.9709 44.0001 23.711C43.7903 24.4512 43.6854 25.0459 43.6854 25.4953C43.6854 26.1297 43.9214 26.4469 44.3934 26.4469C44.8129 26.4469 45.3373 26.1826 45.9666 25.6539C46.5697 25.1517 47.0941 24.6098 47.5399 24.0282C48.0905 23.341 48.5887 22.614 49.0345 21.8474C49.5064 21.0544 49.9129 20.3275 50.2537 19.6667C50.3848 19.4552 50.4766 19.3495 50.5291 19.3495C50.6864 19.3495 50.765 19.5741 50.765 20.0235C50.765 20.235 50.7257 20.4861 50.647 20.7769C50.5946 21.0412 50.5028 21.2923 50.3717 21.5302C50.0046 22.1647 49.572 22.8651 49.0738 23.6317C48.5756 24.3983 48.0643 25.1384 47.5399 25.8522C47.1728 26.3544 46.6877 26.9095 46.0846 27.5175C45.4815 28.1254 44.8391 28.6541 44.1574 29.1035C43.4757 29.5264 42.8201 29.7379 42.1908 29.7379Z" fill="black"/>
<path d="M50.9439 29.7379C50.2097 29.7379 49.6591 29.4736 49.292 28.9449C48.9249 28.3898 48.7413 27.6496 48.7413 26.7245C48.7413 26.5923 48.7413 26.4601 48.7413 26.328C48.7413 26.1958 48.7544 26.0636 48.7807 25.9315C48.9118 24.927 49.1346 23.7903 49.4493 22.5215C49.7902 21.2527 50.1835 19.9178 50.6292 18.5168C50.8914 17.7238 51.2192 16.7325 51.6125 15.543C52.032 14.3271 52.5171 13.0318 53.0678 11.6573C53.6184 10.2563 54.2215 8.8685 54.877 7.49395C55.5587 6.1194 56.306 4.87701 57.1189 3.7668C57.9317 2.63015 58.7839 1.71819 59.6754 1.03091C60.5931 0.343637 61.5633 0 62.5859 0C63.425 0 64.0018 0.211469 64.3165 0.634408C64.6311 1.03091 64.7885 1.50672 64.7885 2.06183C64.7885 2.64337 64.6836 3.23813 64.4738 3.8461C64.264 4.42764 64.0543 4.91667 63.8445 5.31317C63.3725 6.26479 62.7563 7.33535 61.9959 8.52486C61.2355 9.71438 60.4358 10.8246 59.5967 11.8555C59.0985 12.5164 58.4823 13.2565 57.7482 14.0759C57.014 14.8954 56.3191 15.6487 55.6636 16.336C55.0343 17.0233 54.5754 17.4991 54.287 17.7634L53.6577 19.5874C53.4742 20.0896 53.2906 20.6844 53.1071 21.3716C52.9498 22.0589 52.8055 22.7462 52.6744 23.4335C52.5696 24.0943 52.4778 24.6759 52.3991 25.1781C52.3729 25.2838 52.3598 25.3896 52.3598 25.4953C52.3598 25.601 52.3598 25.6935 52.3598 25.7728C52.3598 26.5659 52.6613 26.9624 53.2644 26.9624C53.6315 26.9624 54.0904 26.7905 54.641 26.4469C55.1654 26.1297 55.6636 25.72 56.1356 25.2177C56.6338 24.6891 56.9878 24.2926 57.1975 24.0282C57.7219 23.341 58.2201 22.614 58.6921 21.8474C59.1641 21.0544 59.5705 20.3275 59.9114 19.6667C60.0425 19.4552 60.1343 19.3495 60.1867 19.3495C60.344 19.3495 60.4227 19.5741 60.4227 20.0235C60.4227 20.235 60.3834 20.4861 60.3047 20.7769C60.2523 21.0412 60.1605 21.2923 60.0294 21.5302C59.6623 22.1647 59.2296 22.8651 58.7314 23.6317C58.2333 24.3983 57.7219 25.1384 57.1975 25.8522C56.8042 26.3808 56.2536 26.9491 55.5456 27.5571C54.8377 28.1651 54.0773 28.6806 53.2644 29.1035C52.4516 29.5264 51.6781 29.7379 50.9439 29.7379ZM55.0736 15.5034C56.3847 13.9438 57.7088 12.2784 59.0461 10.5074C60.4096 8.7099 61.5371 6.88598 62.4286 5.03562C62.481 4.90345 62.599 4.63911 62.7826 4.24261C62.9661 3.8461 63.1365 3.40995 63.2939 2.93414C63.4512 2.4319 63.5299 2.00896 63.5299 1.66532C63.5299 1.21595 63.3594 0.991262 63.0185 0.991262H62.7432C62.4024 0.991262 61.9959 1.22917 61.524 1.70497C61.0782 2.18078 60.6193 2.81519 60.1474 3.6082C59.5443 4.61268 58.9543 5.77576 58.3775 7.09745C57.8006 8.3927 57.2369 9.76725 56.6862 11.2211C56.1356 12.675 55.5981 14.1024 55.0736 15.5034Z" fill="black"/>
<path d="M67.1904 10.4677C66.5087 10.2298 66.1678 9.78047 66.1678 9.11962C66.1678 8.51165 66.4038 7.89046 66.8758 7.25605C67.374 6.59521 67.9115 6.17227 68.4883 5.98723C68.6195 5.93436 68.7243 5.90793 68.803 5.90793C68.9079 5.90793 69.0128 5.90793 69.1176 5.90793C69.5634 5.90793 69.9305 6.0401 70.2189 6.30443C70.5073 6.56877 70.6516 6.87276 70.6516 7.2164C70.6516 7.6922 70.4025 8.08871 69.9043 8.40591C69.511 8.35305 69.1308 8.44556 68.7637 8.68347C68.3966 8.92137 68.0688 9.21214 67.7804 9.55578C67.5182 9.89942 67.3215 10.2034 67.1904 10.4677ZM60.4255 29.7379C60.0846 29.7379 59.7568 29.6586 59.4422 29.5C59.1275 29.3678 58.8653 29.0903 58.6555 28.6673C58.3671 28.0329 58.2229 27.2796 58.2229 26.4073C58.2229 25.4556 58.3671 24.3983 58.6555 23.2352C58.944 22.0457 59.3242 20.8297 59.7962 19.5874C59.9797 19.138 60.2157 18.5829 60.5041 17.922C60.7925 17.2612 61.1334 16.6004 61.5267 15.9395C61.92 15.2787 62.3658 14.7368 62.864 14.3138C63.3884 13.8645 63.9522 13.6398 64.5552 13.6398C64.8437 13.6398 65.2501 13.653 65.7745 13.6794C66.2989 13.7059 66.6791 13.7059 66.9151 13.6794C66.7578 13.7852 66.5742 13.9966 66.3645 14.3138C66.1547 14.631 65.958 14.9615 65.7745 15.3051C65.591 15.6223 65.4467 15.8734 65.3419 16.0585C64.6601 17.433 64.0177 18.7944 63.4146 20.1425C62.8115 21.4906 62.3527 22.7858 62.038 24.0282C61.9856 24.2397 61.9463 24.4512 61.92 24.6626C61.8938 24.8741 61.8807 25.0724 61.8807 25.2574C61.8807 26.024 62.1298 26.4073 62.628 26.4073C62.8378 26.4073 63.0606 26.3544 63.2966 26.2487C63.5588 26.1165 63.8604 25.9182 64.2012 25.6539C64.8043 25.1781 65.3287 24.6362 65.7745 24.0282C66.2989 23.341 66.7971 22.614 67.2691 21.8474C67.7411 21.0544 68.1475 20.3275 68.4883 19.6667C68.6195 19.4552 68.7112 19.3495 68.7637 19.3495C68.921 19.3495 68.9997 19.5741 68.9997 20.0235C68.9997 20.235 68.9603 20.4861 68.8817 20.7769C68.8292 21.0412 68.7374 21.2923 68.6063 21.5302C68.2392 22.1647 67.8066 22.8651 67.3084 23.6317C66.8102 24.3983 66.2989 25.1384 65.7745 25.8522C65.4074 26.3544 64.9223 26.9095 64.3192 27.5175C63.7162 28.1254 63.0738 28.6541 62.392 29.1035C61.7103 29.5264 61.0548 29.7379 60.4255 29.7379Z" fill="black"/>
<path d="M77.5659 29.7379C76.6744 29.7379 76.0582 29.4736 75.7173 28.9449C75.4026 28.3898 75.2453 27.7554 75.2453 27.0417C75.2453 26.1694 75.4158 25.1252 75.7566 23.9093C76.0975 22.6669 76.4908 21.4245 76.9366 20.1821C77.4085 18.9133 77.8281 17.7899 78.1952 16.8118C78.3 16.5739 78.3525 16.3228 78.3525 16.0585C78.3525 15.7677 78.2607 15.5562 78.0772 15.4241C77.8936 15.2919 77.6576 15.2258 77.3692 15.2258C76.9497 15.2258 76.4777 15.358 75.9533 15.6223C75.1404 16.0452 74.3669 16.7193 73.6327 17.6445C72.8986 18.5697 72.3086 19.5345 71.8628 20.539C71.3646 21.6756 70.9189 22.8123 70.5256 23.9489C70.1323 25.0856 69.8176 26.0108 69.5816 26.7245C69.4243 27.1738 69.2801 27.6364 69.149 28.1122C69.0179 28.588 68.8868 29.0506 68.7557 29.5H64.9406C64.9406 29.5 65.0323 29.1696 65.2159 28.5087C65.3732 27.8479 65.583 27.1871 65.8452 26.5262C66.2909 25.3631 66.7367 24.2 67.1824 23.037C67.6544 21.8739 68.0608 20.843 68.4017 19.9442C68.5066 19.6799 68.6639 19.1909 68.8737 18.4772C69.1097 17.737 69.3194 16.9704 69.503 16.1774C69.7127 15.3844 69.8176 14.7368 69.8176 14.2345C69.8176 13.9438 69.7783 13.7455 69.6996 13.6398C69.9356 13.6398 70.1978 13.6398 70.4862 13.6398C70.8009 13.6134 71.0893 13.6001 71.3515 13.6001C71.7186 13.6001 72.0595 13.6134 72.3741 13.6398C72.715 13.6662 72.9379 13.7323 73.0428 13.838C73.3574 14.0759 73.5148 14.4196 73.5148 14.869C73.5148 15.1862 73.4492 15.5034 73.3181 15.8206C73.2132 16.1378 73.1346 16.4021 73.0821 16.6136C73.4492 16.2699 73.8294 15.9395 74.2227 15.6223C74.616 15.3051 75.2191 14.8954 76.0319 14.3931C76.5039 14.1024 77.0939 13.8645 77.8018 13.6794C78.5098 13.4944 79.1522 13.4019 79.7291 13.4019C81.2237 13.4019 81.971 14.1024 81.971 15.5034C81.971 15.7413 81.9447 16.0056 81.8923 16.2964C81.8661 16.5871 81.7874 16.9043 81.6563 17.248C81.5252 17.6709 81.3154 18.2525 81.027 18.9926C80.7386 19.7328 80.437 20.5258 80.1224 21.3716C79.834 22.1911 79.5849 22.9709 79.3751 23.711C79.1653 24.4512 79.0605 25.0459 79.0605 25.4953C79.0605 26.1297 79.2964 26.4469 79.7684 26.4469C80.1879 26.4469 80.7124 26.1826 81.3417 25.6539C81.9447 25.1517 82.4692 24.6098 82.9149 24.0282C83.4655 23.341 83.9637 22.614 84.4095 21.8474C84.8815 21.0544 85.2879 20.3275 85.6288 19.6667C85.7599 19.4552 85.8516 19.3495 85.9041 19.3495C86.0614 19.3495 86.1401 19.5741 86.1401 20.0235C86.1401 20.235 86.1007 20.4861 86.0221 20.7769C85.9696 21.0412 85.8779 21.2923 85.7467 21.5302C85.3797 22.1647 84.947 22.8651 84.4488 23.6317C83.9506 24.3983 83.4393 25.1384 82.9149 25.8522C82.5478 26.3544 82.0627 26.9095 81.4597 27.5175C80.8566 28.1254 80.2142 28.6541 79.5324 29.1035C78.8507 29.5264 78.1952 29.7379 77.5659 29.7379Z" fill="black"/>
<path d="M93.3985 28.9449C92.1924 29.5793 90.9206 29.8965 89.5834 29.8965C88.4559 29.8965 87.4071 29.619 86.4369 29.0638C85.4667 28.5087 84.8112 27.6232 84.4703 26.4073C84.313 25.8522 84.2343 25.2706 84.2343 24.6626C84.2343 23.6582 84.4048 22.6272 84.7456 21.5699C85.1127 20.4861 85.5847 19.4948 86.1616 18.5961C87.0531 17.1951 88.1806 16.032 89.5441 15.1069C90.9075 14.1817 92.4152 13.7191 94.0671 13.7191C95.2995 13.7191 96.2566 14.0363 96.9383 14.6707C97.6201 15.3051 97.9609 16.0453 97.9609 16.8911C97.9609 17.8956 97.6201 18.7811 96.9383 19.5477C96.2828 20.2879 95.4175 20.8562 94.3425 21.2527C93.818 21.4377 93.2543 21.5831 92.6512 21.6888C92.0744 21.7681 91.5237 21.8078 90.9993 21.8078C89.9243 21.8078 89.0983 21.6624 88.5214 21.3716C88.0232 22.6669 87.7742 23.8564 87.7742 24.9402C87.7742 25.9182 87.997 26.7245 88.4428 27.3589C88.8885 27.9668 89.5965 28.2708 90.5667 28.2708C91.3795 28.2708 92.1792 28.0461 92.9659 27.5968C93.7787 27.1474 94.526 26.5923 95.2078 25.9315C95.9157 25.2706 96.5057 24.6362 96.9777 24.0282C97.3447 23.5789 97.6594 23.1559 97.9216 22.7594C98.1838 22.3629 98.4591 21.9135 98.7476 21.4113C99.036 20.8826 99.3769 20.235 99.7702 19.4684C99.875 19.2834 99.9668 19.1909 100.045 19.1909C100.203 19.1909 100.281 19.4023 100.281 19.8253C100.281 20.0632 100.242 20.3275 100.163 20.6183C100.111 20.8826 100.006 21.1602 99.8488 21.4509C99.4817 22.1118 99.036 22.8387 98.5116 23.6317C98.0134 24.3983 97.5021 25.1384 96.9777 25.8522C96.5057 26.4866 95.9681 27.0681 95.3651 27.5968C94.762 28.1254 94.1065 28.5748 93.3985 28.9449ZM89.8194 20.4993C89.9505 20.5786 90.0947 20.6315 90.252 20.6579C90.4093 20.6844 90.5667 20.6976 90.724 20.6976C91.2484 20.6976 91.7728 20.5786 92.2972 20.3407C92.8217 20.0764 93.2674 19.8121 93.6345 19.5477C94.2376 19.1248 94.7489 18.6225 95.1684 18.041C95.5879 17.4595 95.8239 16.7986 95.8764 16.0585C95.9026 15.7413 95.8239 15.4769 95.6404 15.2655C95.4831 15.0276 95.1946 14.9086 94.7751 14.9086C94.5653 14.9086 94.3031 14.9483 93.9885 15.0276C93.5689 15.1333 93.1494 15.3315 92.7299 15.6223C92.3104 15.9131 91.9039 16.2567 91.5106 16.6532C91.3795 16.7854 91.1435 17.0497 90.8027 17.4462C90.488 17.8163 90.1865 18.2392 89.898 18.7151C89.6096 19.1644 89.4654 19.5609 89.4654 19.9046C89.4654 20.1953 89.5834 20.3936 89.8194 20.4993Z" fill="black"/>
<path d="M134.586 29.8172C133.59 29.8172 132.829 29.5529 132.305 29.0242C131.781 28.4955 131.427 27.8215 131.243 27.002C131.06 26.1826 130.942 25.3367 130.889 24.4644C130.889 23.9621 130.915 23.3674 130.968 22.6801C131.02 21.9928 131.086 21.332 131.164 20.6976C131.269 20.0367 131.348 19.5477 131.4 19.2305H122.394C120.715 21.0016 119.116 22.733 117.595 24.4247C116.101 26.0901 114.632 27.7818 113.19 29.5H109.257C109.939 28.8656 110.83 28.0197 111.931 26.9624C113.059 25.8786 114.331 24.6494 115.747 23.2749C117.163 21.9003 118.631 20.4465 120.152 18.9133C121.699 17.3537 123.246 15.7941 124.793 14.2345C126.34 12.6485 127.795 11.1286 129.159 9.67473C130.548 8.19444 131.781 6.85954 132.856 5.67003C133.38 5.08849 133.865 4.50694 134.311 3.9254C134.783 3.31743 135.307 2.81519 135.884 2.41868C136.461 2.02218 137.169 1.82392 138.008 1.82392H140.84C140.394 2.24686 139.948 2.96057 139.503 3.96505C139.057 4.96953 138.65 6.05332 138.283 7.2164C137.943 8.37948 137.654 9.43683 137.418 10.3884C137.077 11.8159 136.723 13.3622 136.356 15.0276C136.015 16.6929 135.74 18.345 135.53 19.9839C135.32 21.6228 135.255 23.1427 135.334 24.5437C135.36 25.0459 135.452 25.5746 135.609 26.1297C135.792 26.6584 136.042 27.121 136.356 27.5175C136.697 27.8875 137.117 28.0726 137.615 28.0726C138.061 28.0726 138.546 27.9008 139.07 27.5571L139.306 27.914C138.965 28.4427 138.31 28.892 137.339 29.2621C136.395 29.6322 135.478 29.8172 134.586 29.8172ZM118.854 9.71438C118.434 9.26501 118.12 8.80242 117.91 8.32661C117.726 7.85081 117.635 7.40143 117.635 6.97849C117.635 6.44982 117.739 5.94758 117.949 5.47177C118.185 4.96953 118.46 4.5466 118.775 4.20296C119.404 3.48925 120.191 2.96057 121.135 2.61693C122.079 2.2733 123.075 2.06183 124.124 1.98253C125.199 1.87679 126.222 1.82392 127.192 1.82392H136.002C135.452 2.37903 134.612 2.81519 133.485 3.13239C132.384 3.42316 131.178 3.64785 129.867 3.80645C128.555 3.93862 127.284 4.07079 126.051 4.20296C124.845 4.30869 123.849 4.45408 123.062 4.63911C121.673 4.95632 120.611 5.56429 119.876 6.46304C119.168 7.36178 118.828 8.44556 118.854 9.71438ZM124.124 17.248H131.676C131.99 15.5034 132.357 13.7587 132.777 12.0141C133.223 10.2695 133.616 8.73633 133.957 7.41465C132.357 8.9478 130.719 10.547 129.041 12.2124C127.389 13.8513 125.75 15.5298 124.124 17.248Z" fill="black"/>
<path d="M135.444 39.3333C135.575 39.1483 135.745 38.8179 135.955 38.3421C136.165 37.8927 136.388 37.4037 136.624 36.875C136.86 36.3463 137.056 35.897 137.214 35.5269C137.66 34.4167 138.171 33.0553 138.748 31.4429C139.325 29.8569 139.915 28.1915 140.518 26.4469C141.121 24.7023 141.698 23.037 142.248 21.4509C142.799 19.8649 143.284 18.5565 143.703 17.5255C144.097 16.5739 144.438 15.8206 144.726 15.2655C145.014 14.6839 145.421 14.2742 145.945 14.0363C146.496 13.772 147.322 13.6398 148.423 13.6398H149.603C149.236 13.9041 148.751 14.5121 148.148 15.4637C147.571 16.3889 147.02 17.3669 146.496 18.3978C146.679 18.1599 146.85 17.9353 147.007 17.7238C147.165 17.4859 147.335 17.2744 147.519 17.0894C148.358 16.0585 149.249 15.1994 150.193 14.5121C151.137 13.8248 152.055 13.4812 152.946 13.4812C153.68 13.4812 154.297 13.7587 154.795 14.3138C155.319 14.869 155.581 15.8073 155.581 17.129C155.581 18.345 155.345 19.5741 154.873 20.8165C154.428 22.0325 153.825 23.1956 153.064 24.3058C152.304 25.3896 151.465 26.3544 150.547 27.2003C150.364 27.3853 150.154 27.5703 149.918 27.7554C149.708 27.914 149.485 28.0726 149.249 28.2312C150.088 28.3105 150.914 28.1122 151.727 27.6364C152.566 27.1606 153.326 26.5791 154.008 25.8918C154.716 25.2045 155.293 24.5833 155.739 24.0282C156.263 23.341 156.788 22.5479 157.312 21.6492C157.863 20.7504 158.308 19.9574 158.649 19.2702C158.754 19.0851 158.846 18.9926 158.925 18.9926C159.134 18.9926 159.239 19.2305 159.239 19.7063C159.239 20.1293 159.108 20.5654 158.846 21.0148C158.636 21.4113 158.348 21.9135 157.981 22.5215C157.614 23.1295 157.286 23.6582 156.997 24.1075C155.791 25.8786 154.388 27.3324 152.789 28.4691C151.189 29.6057 149.262 30.1741 147.007 30.1741C146.824 30.1741 146.627 30.1741 146.417 30.1741C146.234 30.1741 146.037 30.1608 145.827 30.1344C145.198 30.0815 144.608 29.9229 144.057 29.6586C143.507 29.4207 143.14 28.9581 142.956 28.2708L140.754 35.2097C140.465 36.1349 140.203 36.9014 139.967 37.5094C139.705 38.1174 139.39 38.5668 139.023 38.8575C138.63 39.1747 138.066 39.3333 137.332 39.3333H135.444ZM144.923 28.4691C145.368 28.4691 145.88 28.2444 146.457 27.795C147.033 27.3192 147.597 26.7377 148.148 26.0504C148.725 25.3367 149.21 24.6494 149.603 23.9886C150.206 22.9312 150.717 21.8474 151.137 20.7372C151.557 19.627 151.766 18.7151 151.766 18.0013C151.766 17.2083 151.452 16.8118 150.822 16.8118C150.272 16.8118 149.669 17.0762 149.013 17.6048C148.541 17.9749 148.004 18.5168 147.401 19.2305C146.824 19.9442 146.247 20.7504 145.67 21.6492C145.119 22.5215 144.66 23.4203 144.293 24.3454C143.953 25.2442 143.782 26.0636 143.782 26.8038C143.782 26.9359 143.782 27.0681 143.782 27.2003C143.808 27.306 143.835 27.425 143.861 27.5571C143.992 28.1651 144.346 28.4691 144.923 28.4691Z" fill="black"/>
<path d="M150.923 39.3333C151.054 39.1483 151.224 38.8179 151.434 38.3421C151.644 37.8927 151.867 37.4037 152.103 36.875C152.339 36.3463 152.535 35.897 152.693 35.5269C153.138 34.4167 153.65 33.0553 154.227 31.4429C154.804 29.8569 155.393 28.1915 155.997 26.4469C156.6 24.7023 157.176 23.037 157.727 21.4509C158.278 19.8649 158.763 18.5565 159.182 17.5255C159.576 16.5739 159.917 15.8206 160.205 15.2655C160.493 14.6839 160.9 14.2742 161.424 14.0363C161.975 13.772 162.801 13.6398 163.902 13.6398H165.082C164.715 13.9041 164.23 14.5121 163.627 15.4637C163.05 16.3889 162.499 17.3669 161.975 18.3978C162.158 18.1599 162.329 17.9353 162.486 17.7238C162.644 17.4859 162.814 17.2744 162.998 17.0894C163.837 16.0585 164.728 15.1994 165.672 14.5121C166.616 13.8248 167.534 13.4812 168.425 13.4812C169.159 13.4812 169.776 13.7587 170.274 14.3138C170.798 14.869 171.06 15.8073 171.06 17.129C171.06 18.345 170.824 19.5741 170.352 20.8165C169.907 22.0325 169.304 23.1956 168.543 24.3058C167.783 25.3896 166.944 26.3544 166.026 27.2003C165.842 27.3853 165.633 27.5703 165.397 27.7554C165.187 27.914 164.964 28.0726 164.728 28.2312C165.567 28.3105 166.393 28.1122 167.206 27.6364C168.045 27.1606 168.805 26.5791 169.487 25.8918C170.195 25.2045 170.772 24.5833 171.218 24.0282C171.742 23.341 172.267 22.5479 172.791 21.6492C173.342 20.7504 173.787 19.9574 174.128 19.2702C174.233 19.0851 174.325 18.9926 174.404 18.9926C174.613 18.9926 174.718 19.2305 174.718 19.7063C174.718 20.1293 174.587 20.5654 174.325 21.0148C174.115 21.4113 173.827 21.9135 173.46 22.5215C173.093 23.1295 172.765 23.6582 172.476 24.1075C171.27 25.8786 169.867 27.3324 168.268 28.4691C166.668 29.6057 164.741 30.1741 162.486 30.1741C162.303 30.1741 162.106 30.1741 161.896 30.1741C161.713 30.1741 161.516 30.1608 161.306 30.1344C160.677 30.0815 160.087 29.9229 159.536 29.6586C158.986 29.4207 158.619 28.9581 158.435 28.2708L156.233 35.2097C155.944 36.1349 155.682 36.9014 155.446 37.5094C155.184 38.1174 154.869 38.5668 154.502 38.8575C154.109 39.1747 153.545 39.3333 152.811 39.3333H150.923ZM160.402 28.4691C160.847 28.4691 161.359 28.2444 161.936 27.795C162.512 27.3192 163.076 26.7377 163.627 26.0504C164.204 25.3367 164.689 24.6494 165.082 23.9886C165.685 22.9312 166.196 21.8474 166.616 20.7372C167.036 19.627 167.245 18.7151 167.245 18.0013C167.245 17.2083 166.931 16.8118 166.301 16.8118C165.751 16.8118 165.148 17.0762 164.492 17.6048C164.02 17.9749 163.483 18.5168 162.88 19.2305C162.303 19.9442 161.726 20.7504 161.149 21.6492C160.598 22.5215 160.139 23.4203 159.772 24.3454C159.431 25.2442 159.261 26.0636 159.261 26.8038C159.261 26.9359 159.261 27.0681 159.261 27.2003C159.287 27.306 159.313 27.425 159.34 27.5571C159.471 28.1651 159.825 28.4691 160.402 28.4691Z" fill="black"/>
<path d="M174.622 29.7379C173.888 29.7379 173.337 29.4736 172.97 28.9449C172.603 28.3898 172.419 27.6496 172.419 26.7245C172.419 26.5923 172.419 26.4601 172.419 26.328C172.419 26.1958 172.433 26.0636 172.459 25.9315C172.59 24.927 172.813 23.7903 173.127 22.5215C173.468 21.2527 173.862 19.9178 174.307 18.5168C174.57 17.7238 174.897 16.7325 175.291 15.543C175.71 14.3271 176.195 13.0318 176.746 11.6573C177.297 10.2563 177.9 8.8685 178.555 7.49395C179.237 6.1194 179.984 4.87701 180.797 3.7668C181.61 2.63015 182.462 1.71819 183.354 1.03091C184.271 0.343637 185.241 0 186.264 0C187.103 0 187.68 0.211469 187.995 0.634408C188.309 1.03091 188.467 1.50672 188.467 2.06183C188.467 2.64337 188.362 3.23813 188.152 3.8461C187.942 4.42764 187.732 4.91667 187.523 5.31317C187.051 6.26479 186.435 7.33535 185.674 8.52486C184.914 9.71438 184.114 10.8246 183.275 11.8555C182.777 12.5164 182.161 13.2565 181.426 14.0759C180.692 14.8954 179.997 15.6487 179.342 16.336C178.712 17.0233 178.254 17.4991 177.965 17.7634L177.336 19.5874C177.152 20.0896 176.969 20.6844 176.785 21.3716C176.628 22.0589 176.484 22.7462 176.353 23.4335C176.248 24.0943 176.156 24.6759 176.077 25.1781C176.051 25.2838 176.038 25.3896 176.038 25.4953C176.038 25.601 176.038 25.6935 176.038 25.7728C176.038 26.5659 176.339 26.9624 176.943 26.9624C177.31 26.9624 177.769 26.7905 178.319 26.4469C178.844 26.1297 179.342 25.72 179.814 25.2177C180.312 24.6891 180.666 24.2926 180.876 24.0282C181.4 23.341 181.898 22.614 182.37 21.8474C182.842 21.0544 183.249 20.3275 183.59 19.6667C183.721 19.4552 183.812 19.3495 183.865 19.3495C184.022 19.3495 184.101 19.5741 184.101 20.0235C184.101 20.235 184.062 20.4861 183.983 20.7769C183.93 21.0412 183.839 21.2923 183.708 21.5302C183.34 22.1647 182.908 22.8651 182.41 23.6317C181.911 24.3983 181.4 25.1384 180.876 25.8522C180.482 26.3808 179.932 26.9491 179.224 27.5571C178.516 28.1651 177.755 28.6806 176.943 29.1035C176.13 29.5264 175.356 29.7379 174.622 29.7379ZM178.752 15.5034C180.063 13.9438 181.387 12.2784 182.724 10.5074C184.088 8.7099 185.215 6.88598 186.107 5.03562C186.159 4.90345 186.277 4.63911 186.461 4.24261C186.644 3.8461 186.815 3.40995 186.972 2.93414C187.129 2.4319 187.208 2.00896 187.208 1.66532C187.208 1.21595 187.038 0.991262 186.697 0.991262H186.421C186.081 0.991262 185.674 1.22917 185.202 1.70497C184.756 2.18078 184.298 2.81519 183.826 3.6082C183.222 4.61268 182.632 5.77576 182.056 7.09745C181.479 8.3927 180.915 9.76725 180.364 11.2211C179.814 12.675 179.276 14.1024 178.752 15.5034Z" fill="black"/>
<path d="M191.419 28.9449C190.213 29.5793 188.941 29.8965 187.604 29.8965C186.477 29.8965 185.428 29.619 184.458 29.0638C183.487 28.5087 182.832 27.6232 182.491 26.4073C182.334 25.8522 182.255 25.2706 182.255 24.6626C182.255 23.6582 182.425 22.6272 182.766 21.5699C183.133 20.4861 183.605 19.4948 184.182 18.5961C185.074 17.1951 186.201 16.032 187.565 15.1069C188.928 14.1817 190.436 13.7191 192.088 13.7191C193.32 13.7191 194.277 14.0363 194.959 14.6707C195.641 15.3051 195.982 16.0453 195.982 16.8911C195.982 17.8956 195.641 18.7811 194.959 19.5477C194.304 20.2879 193.438 20.8562 192.363 21.2527C191.839 21.4377 191.275 21.5831 190.672 21.6888C190.095 21.7681 189.544 21.8078 189.02 21.8078C187.945 21.8078 187.119 21.6624 186.542 21.3716C186.044 22.6669 185.795 23.8564 185.795 24.9402C185.795 25.9182 186.018 26.7245 186.463 27.3589C186.909 27.9668 187.617 28.2708 188.587 28.2708C189.4 28.2708 190.2 28.0461 190.987 27.5968C191.799 27.1474 192.547 26.5923 193.228 25.9315C193.936 25.2706 194.526 24.6362 194.998 24.0282C195.365 23.5789 195.68 23.1559 195.942 22.7594C196.205 22.3629 196.48 21.9135 196.768 21.4113C197.057 20.8826 197.398 20.235 197.791 19.4684C197.896 19.2834 197.988 19.1909 198.066 19.1909C198.224 19.1909 198.302 19.4023 198.302 19.8253C198.302 20.0632 198.263 20.3275 198.184 20.6183C198.132 20.8826 198.027 21.1602 197.87 21.4509C197.502 22.1118 197.057 22.8387 196.532 23.6317C196.034 24.3983 195.523 25.1384 194.998 25.8522C194.526 26.4866 193.989 27.0681 193.386 27.5968C192.783 28.1254 192.127 28.5748 191.419 28.9449ZM187.84 20.4993C187.971 20.5786 188.115 20.6315 188.273 20.6579C188.43 20.6844 188.587 20.6976 188.745 20.6976C189.269 20.6976 189.794 20.5786 190.318 20.3407C190.842 20.0764 191.288 19.8121 191.655 19.5477C192.258 19.1248 192.77 18.6225 193.189 18.041C193.609 17.4595 193.845 16.7986 193.897 16.0585C193.923 15.7413 193.845 15.4769 193.661 15.2655C193.504 15.0276 193.215 14.9086 192.796 14.9086C192.586 14.9086 192.324 14.9483 192.009 15.0276C191.59 15.1333 191.17 15.3315 190.751 15.6223C190.331 15.9131 189.925 16.2567 189.531 16.6532C189.4 16.7854 189.164 17.0497 188.823 17.4462C188.509 17.8163 188.207 18.2392 187.919 18.7151C187.63 19.1644 187.486 19.5609 187.486 19.9046C187.486 20.1953 187.604 20.3936 187.84 20.4993Z" fill="black"/>
<path d="M234.416 29.8172C233.394 29.8172 232.699 29.5529 232.332 29.0242C231.965 28.4691 231.781 27.7818 231.781 26.9624C231.781 26.2222 231.886 25.3896 232.096 24.4644C232.332 23.3277 232.751 21.9796 233.354 20.42C233.984 18.8604 234.678 17.2348 235.439 15.543C236.225 13.8248 236.999 12.1859 237.759 10.6263C238.546 9.06676 239.228 7.73185 239.805 6.62164C239.464 6.93884 239.11 7.26927 238.743 7.6129C238.402 7.95654 238.048 8.33983 237.681 8.76277C236.16 10.481 234.77 12.1198 233.512 13.6794C232.279 15.2126 231.086 16.7325 229.932 18.2392C228.805 19.7195 227.638 21.2395 226.432 22.7991C225.776 23.6714 225.252 24.3322 224.859 24.7816C224.492 25.2045 224.151 25.4953 223.836 25.6539C223.548 25.7861 223.181 25.8522 222.735 25.8522C222.079 25.8522 221.332 25.6539 220.493 25.2574C220.86 24.808 221.109 23.8432 221.24 22.3629C221.398 20.8826 221.476 19.1909 221.476 17.2876C221.476 15.358 221.411 13.3622 221.28 11.3004C221.148 9.23858 220.952 7.41465 220.69 5.82863C220.532 6.09297 220.244 6.67451 219.824 7.57325C219.431 8.472 218.946 9.58221 218.369 10.9039C217.818 12.1991 217.228 13.6134 216.599 15.1465C215.97 16.6532 215.354 18.1732 214.751 19.7063C214.174 21.213 213.649 22.6405 213.177 23.9886C212.732 25.3367 212.391 26.4998 212.155 27.4778C211.919 28.4559 211.84 29.1299 211.919 29.5H208.3C208.877 28.0197 209.533 26.3808 210.267 24.5833C211.027 22.7594 211.814 20.8958 212.627 18.9926C213.44 17.0894 214.239 15.239 215.026 13.4415C215.839 11.644 216.573 10.0052 217.228 8.52486C217.91 7.01814 218.474 5.77576 218.92 4.79771C219.365 3.81967 219.654 3.21169 219.785 2.97379C218.631 2.94736 217.451 3.06631 216.245 3.33064C215.039 3.56855 213.912 3.91219 212.863 4.36156C211.814 4.81093 210.922 5.32639 210.188 5.90793C209.48 6.48947 209.021 7.09745 208.812 7.73185C208.785 7.81116 208.733 7.85081 208.654 7.85081C208.445 7.85081 208.34 7.67899 208.34 7.33535C208.34 7.28248 208.34 7.22961 208.34 7.17675C208.366 7.09745 208.392 7.01814 208.418 6.93884C208.654 6.25157 208.943 5.64359 209.284 5.11492C209.651 4.58624 210.005 4.13687 210.346 3.7668C211.211 2.86805 212.181 2.32616 213.256 2.14113C214.331 1.92966 215.472 1.82392 216.678 1.82392H220.493C221.07 1.82392 221.634 1.82392 222.184 1.82392C222.735 1.82392 223.22 1.96931 223.639 2.26008C224.059 2.52442 224.334 3.05309 224.465 3.8461C224.57 4.40121 224.662 5.24709 224.741 6.38374C224.846 7.49395 224.924 8.73634 224.977 10.1109C225.055 11.4854 225.121 12.8468 225.173 14.1949C225.226 15.543 225.265 16.7061 225.291 17.6841C225.291 17.737 225.291 17.8956 225.291 18.1599C225.318 18.3978 225.331 18.7018 225.331 19.0719C225.331 19.4155 225.318 19.8121 225.291 20.2614C225.291 20.6844 225.265 21.0941 225.213 21.4906C225.763 20.8033 226.445 19.9574 227.258 18.953C228.097 17.922 229.002 16.8118 229.972 15.6223C230.942 14.4064 231.925 13.1904 232.922 11.9745C233.918 10.7585 234.875 9.59543 235.793 8.48521C236.711 7.375 237.51 6.41017 238.192 5.59072C238.9 4.74485 239.424 4.11044 239.765 3.6875C240.368 3.00022 241.129 2.52442 242.046 2.26008C242.964 1.96931 243.882 1.82392 244.8 1.82392H247.238C246.688 2.24686 246.084 2.96057 245.429 3.96505C244.773 4.96953 244.131 6.05332 243.502 7.2164C242.899 8.37948 242.361 9.43683 241.889 10.3884C241.207 11.8159 240.513 13.3622 239.805 15.0276C239.097 16.6929 238.467 18.345 237.917 19.9839C237.366 21.6228 236.96 23.1427 236.697 24.5437C236.619 24.9666 236.579 25.416 236.579 25.8918C236.579 26.4733 236.671 26.9888 236.855 27.4382C237.064 27.8611 237.432 28.0726 237.956 28.0726C238.376 28.0726 238.887 27.9008 239.49 27.5571H239.529C239.582 27.5571 239.621 27.61 239.647 27.7157C239.673 27.795 239.66 27.8611 239.608 27.914C239.11 28.4427 238.349 28.892 237.327 29.2621C236.304 29.6322 235.334 29.8172 234.416 29.8172Z" fill="black"/>
<path d="M252.787 29.7379C251.974 29.7379 251.41 29.4207 251.096 28.7863C250.807 28.1519 250.663 27.3721 250.663 26.4469C250.663 25.601 250.742 24.7684 250.899 23.9489C250.978 23.5789 251.056 23.2088 251.135 22.8387C251.24 22.4422 251.358 22.0325 251.489 21.6095C251.043 22.429 250.571 23.222 250.073 23.9886C249.601 24.7552 249.116 25.4292 248.618 26.0108C247.779 27.0417 246.887 27.9008 245.943 28.588C245.026 29.2753 244.108 29.6189 243.19 29.6189C242.456 29.6189 241.827 29.3546 241.302 28.8259C240.804 28.2708 240.555 27.3192 240.555 25.9711C240.555 24.5965 240.791 23.1823 241.263 21.7285C241.735 20.2746 242.39 18.9265 243.229 17.6841C244.095 16.4153 245.104 15.3976 246.258 14.631C247.438 13.8645 248.723 13.4812 250.112 13.4812C250.558 13.4812 251.043 13.5473 251.568 13.6794C252.092 13.8116 252.577 14.0627 253.023 14.4328C253.469 14.7764 253.77 15.2655 253.928 15.8999C253.954 15.847 253.98 15.8073 254.006 15.7809C254.059 15.7545 254.098 15.728 254.124 15.7016C254.491 15.1201 254.911 14.631 255.383 14.2345C255.855 13.838 256.379 13.6398 256.956 13.6398C257.244 13.6398 257.651 13.653 258.175 13.6794C258.7 13.7059 259.08 13.7059 259.316 13.6794C259.185 13.7852 259.001 13.9966 258.765 14.3138C258.556 14.631 258.359 14.9615 258.175 15.3051C257.992 15.6223 257.848 15.8734 257.743 16.0585C257.035 17.433 256.392 18.7944 255.815 20.1425C255.239 21.4906 254.793 22.7858 254.478 24.0282C254.4 24.2926 254.347 24.5437 254.321 24.7816C254.295 24.9931 254.282 25.2045 254.282 25.416C254.282 26.1033 254.504 26.4469 254.95 26.4469C255.37 26.4469 255.894 26.1826 256.523 25.6539C257.441 24.9138 258.241 23.9886 258.923 22.8784C259.631 21.7681 260.247 20.6976 260.771 19.6667C260.876 19.4816 260.968 19.3891 261.046 19.3891C261.204 19.3891 261.282 19.6138 261.282 20.0632C261.282 20.2746 261.243 20.5125 261.164 20.7769C261.112 21.0412 261.02 21.2923 260.889 21.5302C260.522 22.1647 260.037 22.9444 259.434 23.8696C258.857 24.7948 258.202 25.7068 257.467 26.6055C256.733 27.4778 255.96 28.218 255.147 28.8259C254.36 29.4339 253.574 29.7379 252.787 29.7379ZM244.96 26.2883C245.039 26.3147 245.157 26.328 245.314 26.328C245.812 26.328 246.35 26.1165 246.927 25.6935C247.503 25.2706 248.08 24.7287 248.657 24.0679C249.234 23.3806 249.745 22.6933 250.191 22.006C251.345 20.1557 252.197 18.7679 252.748 17.8427C253.298 16.9176 253.613 16.3889 253.692 16.2567C253.56 15.8073 253.324 15.4769 252.984 15.2655C252.669 15.054 252.289 14.9483 251.843 14.9483C251.266 14.9483 250.65 15.1069 249.994 15.4241C249.365 15.7413 248.828 16.1246 248.382 16.5739C247.7 17.2612 247.045 18.1467 246.415 19.2305C245.812 20.3143 245.314 21.3849 244.921 22.4422C244.554 23.4996 244.37 24.3851 244.37 25.0988C244.37 25.7596 244.567 26.1561 244.96 26.2883Z" fill="black"/>
<path d="M269.843 29.7379C268.952 29.7379 268.335 29.4736 267.995 28.9449C267.68 28.3898 267.523 27.7554 267.523 27.0417C267.523 26.1694 267.693 25.1252 268.034 23.9093C268.375 22.6669 268.768 21.4245 269.214 20.1821C269.686 18.9133 270.105 17.7899 270.472 16.8118C270.577 16.5739 270.63 16.3228 270.63 16.0585C270.63 15.7677 270.538 15.5562 270.354 15.4241C270.171 15.2919 269.935 15.2258 269.647 15.2258C269.227 15.2258 268.755 15.358 268.231 15.6223C267.418 16.0452 266.644 16.7193 265.91 17.6445C265.176 18.5697 264.586 19.5345 264.14 20.539C263.642 21.6756 263.196 22.8123 262.803 23.9489C262.41 25.0856 262.095 26.0108 261.859 26.7245C261.702 27.1738 261.557 27.6364 261.426 28.1122C261.295 28.588 261.164 29.0506 261.033 29.5H257.218C257.218 29.5 257.31 29.1696 257.493 28.5087C257.65 27.8479 257.86 27.1871 258.122 26.5262C258.568 25.3631 259.014 24.2 259.46 23.037C259.932 21.8739 260.338 20.843 260.679 19.9442C260.784 19.6799 260.941 19.1909 261.151 18.4772C261.387 17.737 261.597 16.9704 261.78 16.1774C261.99 15.3844 262.095 14.7368 262.095 14.2345C262.095 13.9438 262.056 13.7455 261.977 13.6398C262.213 13.6398 262.475 13.6398 262.764 13.6398C263.078 13.6134 263.367 13.6001 263.629 13.6001C263.996 13.6001 264.337 13.6134 264.651 13.6398C264.992 13.6662 265.215 13.7323 265.32 13.838C265.635 14.0759 265.792 14.4196 265.792 14.869C265.792 15.1862 265.726 15.5034 265.595 15.8206C265.491 16.1378 265.412 16.4021 265.359 16.6136C265.727 16.2699 266.107 15.9395 266.5 15.6223C266.893 15.3051 267.496 14.8954 268.309 14.3931C268.781 14.1024 269.371 13.8645 270.079 13.6794C270.787 13.4944 271.43 13.4019 272.006 13.4019C273.501 13.4019 274.248 14.1024 274.248 15.5034C274.248 15.7413 274.222 16.0056 274.17 16.2964C274.143 16.5871 274.065 16.9043 273.934 17.248C273.802 17.6709 273.593 18.2525 273.304 18.9926C273.016 19.7328 272.714 20.5258 272.4 21.3716C272.111 22.1911 271.862 22.9709 271.652 23.711C271.443 24.4512 271.338 25.0459 271.338 25.4953C271.338 26.1297 271.574 26.4469 272.046 26.4469C272.465 26.4469 272.99 26.1826 273.619 25.6539C274.222 25.1517 274.746 24.6098 275.192 24.0282C275.743 23.341 276.241 22.614 276.687 21.8474C277.159 21.0544 277.565 20.3275 277.906 19.6667C278.037 19.4552 278.129 19.3495 278.181 19.3495C278.339 19.3495 278.417 19.5741 278.417 20.0235C278.417 20.235 278.378 20.4861 278.299 20.7769C278.247 21.0412 278.155 21.2923 278.024 21.5302C277.657 22.1647 277.224 22.8651 276.726 23.6317C276.228 24.3983 275.717 25.1384 275.192 25.8522C274.825 26.3544 274.34 26.9095 273.737 27.5175C273.134 28.1254 272.491 28.6541 271.81 29.1035C271.128 29.5264 270.472 29.7379 269.843 29.7379Z" fill="black"/>
<path d="M288.626 29.7379C287.839 29.7379 287.288 29.4471 286.974 28.8656C286.685 28.2576 286.541 27.5043 286.541 26.6055C286.541 26.1826 286.567 25.7596 286.62 25.3367C286.672 24.8873 286.738 24.4379 286.816 23.9886C286.869 23.5921 286.974 23.1163 287.131 22.5612C287.288 21.9796 287.472 21.3584 287.682 20.6976C287.184 21.7021 286.607 22.733 285.951 23.7903C285.296 24.8212 284.575 25.7861 283.788 26.6848C283.028 27.5571 282.228 28.2708 281.389 28.8259C280.576 29.3546 279.75 29.6189 278.911 29.6189C278.177 29.6189 277.547 29.3546 277.023 28.8259C276.525 28.2708 276.276 27.3192 276.276 25.9711C276.276 24.5965 276.512 23.1823 276.984 21.7285C277.456 20.2746 278.111 18.9265 278.95 17.6841C279.815 16.4153 280.825 15.3976 281.979 14.631C283.159 13.8645 284.443 13.4812 285.833 13.4812C286.41 13.4812 287.052 13.6001 287.76 13.838C288.468 14.0759 289.006 14.5385 289.373 15.2258C289.504 15.0143 289.609 14.8029 289.688 14.5914C289.766 14.3799 289.845 14.1949 289.924 14.0363C290.553 12.6353 291.09 11.3136 291.536 10.0712C291.982 8.82885 292.375 7.86402 292.716 7.17675C293.162 6.278 293.516 5.60394 293.778 5.15457C294.04 4.67876 294.276 4.34834 294.486 4.1633C294.722 3.97827 294.984 3.8461 295.273 3.7668C295.509 3.71393 295.771 3.67428 296.059 3.64785C296.348 3.62141 296.649 3.6082 296.964 3.6082C297.279 3.6082 297.632 3.6082 298.026 3.6082C298.445 3.6082 298.708 3.59498 298.812 3.56855C298.367 3.88575 297.842 4.53338 297.239 5.51142C296.636 6.48947 296.007 7.66577 295.351 9.04032C294.696 10.4149 294.053 11.8819 293.424 13.4415C292.821 14.9747 292.257 16.5078 291.733 18.041C291.235 19.5477 290.828 20.9223 290.514 22.1647C290.225 23.407 290.081 24.4115 290.081 25.1781C290.081 26.024 290.317 26.4469 290.789 26.4469C291.104 26.4469 291.471 26.2883 291.89 25.9711C292.336 25.6539 292.742 25.297 293.109 24.9005C293.476 24.504 293.739 24.2133 293.896 24.0282C294.42 23.341 294.919 22.614 295.391 21.8474C295.863 21.0544 296.269 20.3143 296.61 19.627C296.741 19.4155 296.833 19.3098 296.885 19.3098C297.069 19.3098 297.161 19.5477 297.161 20.0235C297.161 20.5258 297.029 21.0016 296.767 21.4509C296.4 22.0853 295.954 22.7991 295.43 23.5921C294.932 24.3586 294.42 25.112 293.896 25.8522C293.529 26.328 293.044 26.8698 292.441 27.4778C291.864 28.0858 291.235 28.6145 290.553 29.0638C289.897 29.5132 289.255 29.7379 288.626 29.7379ZM280.681 26.2883C280.759 26.3147 280.877 26.328 281.035 26.328C281.769 26.328 282.621 25.8389 283.591 24.8609C284.588 23.8564 285.584 22.5479 286.58 20.9355C286.79 20.6183 287.039 20.1689 287.328 19.5874C287.616 19.0058 287.918 18.3714 288.232 17.6841C288.573 16.9704 288.888 16.3096 289.176 15.7016C288.993 15.4373 288.757 15.2522 288.468 15.1465C288.206 15.0408 287.918 14.9879 287.603 14.9879C287.026 14.9879 286.41 15.1465 285.754 15.4637C285.099 15.7545 284.548 16.1246 284.103 16.5739C283.421 17.2612 282.765 18.1467 282.136 19.2305C281.533 20.3143 281.035 21.3849 280.641 22.4422C280.274 23.4996 280.091 24.3851 280.091 25.0988C280.091 25.7596 280.287 26.1561 280.681 26.2883Z" fill="black"/>
<path d="M303.831 10.4677C303.149 10.2298 302.808 9.78047 302.808 9.11962C302.808 8.51165 303.044 7.89046 303.516 7.25605C304.014 6.59521 304.552 6.17227 305.128 5.98723C305.26 5.93436 305.364 5.90793 305.443 5.90793C305.548 5.90793 305.653 5.90793 305.758 5.90793C306.204 5.90793 306.571 6.0401 306.859 6.30443C307.147 6.56877 307.292 6.87276 307.292 7.2164C307.292 7.6922 307.043 8.08871 306.544 8.40591C306.151 8.35305 305.771 8.44556 305.404 8.68347C305.037 8.92137 304.709 9.21214 304.42 9.55578C304.158 9.89942 303.962 10.2034 303.831 10.4677ZM297.066 29.7379C296.725 29.7379 296.397 29.6586 296.082 29.5C295.768 29.3678 295.505 29.0903 295.296 28.6673C295.007 28.0329 294.863 27.2796 294.863 26.4073C294.863 25.4556 295.007 24.3983 295.296 23.2352C295.584 22.0457 295.964 20.8297 296.436 19.5874C296.62 19.138 296.856 18.5829 297.144 17.922C297.433 17.2612 297.774 16.6004 298.167 15.9395C298.56 15.2787 299.006 14.7368 299.504 14.3138C300.029 13.8645 300.592 13.6398 301.195 13.6398C301.484 13.6398 301.89 13.653 302.415 13.6794C302.939 13.7059 303.319 13.7059 303.555 13.6794C303.398 13.7852 303.214 13.9966 303.005 14.3138C302.795 14.631 302.598 14.9615 302.415 15.3051C302.231 15.6223 302.087 15.8734 301.982 16.0585C301.3 17.433 300.658 18.7944 300.055 20.1425C299.452 21.4906 298.993 22.7858 298.678 24.0282C298.626 24.2397 298.586 24.4512 298.56 24.6626C298.534 24.8741 298.521 25.0724 298.521 25.2574C298.521 26.024 298.77 26.4073 299.268 26.4073C299.478 26.4073 299.701 26.3544 299.937 26.2487C300.199 26.1165 300.5 25.9182 300.841 25.6539C301.444 25.1781 301.969 24.6362 302.415 24.0282C302.939 23.341 303.437 22.614 303.909 21.8474C304.381 21.0544 304.788 20.3275 305.128 19.6667C305.26 19.4552 305.351 19.3495 305.404 19.3495C305.561 19.3495 305.64 19.5741 305.64 20.0235C305.64 20.235 305.6 20.4861 305.522 20.7769C305.469 21.0412 305.378 21.2923 305.246 21.5302C304.879 22.1647 304.447 22.8651 303.949 23.6317C303.45 24.3983 302.939 25.1384 302.415 25.8522C302.048 26.3544 301.562 26.9095 300.959 27.5175C300.356 28.1254 299.714 28.6541 299.032 29.1035C298.35 29.5264 297.695 29.7379 297.066 29.7379Z" fill="black"/>
</g>
<defs>
<filter id="filter0_d_6_12" x="2.45834" y="0" width="306.833" height="41.3333" filterUnits="userSpaceOnUse" color-interpolation-filters="sRGB">
<feFlood flood-opacity="0" result="BackgroundImageFix"/>
<feColorMatrix in="SourceAlpha" type="matrix" values="0 0 0 0 0 0 0 0 0 0 0 0 0 0 0 0 0 0 127 0" result="hardAlpha"/>
<feOffset dx="1" dy="1"/>
<feGaussianBlur stdDeviation="0.5"/>
<feComposite in2="hardAlpha" operator="out"/>
<feColorMatrix type="matrix" values="0 0 0 0 0 0 0 0 0 0 0 0 0 0 0 0 0 0 0.5 0"/>
<feBlend mode="normal" in2="BackgroundImageFix" result="effect1_dropShadow_6_12"/>
<feBlend mode="normal" in="SourceGraphic" in2="effect1_dropShadow_6_12" result="shape"/>
</filter>
</defs>
</svg>
