<svg width="314" height="53" viewBox="0 0 314 53" fill="none" xmlns="http://www.w3.org/2000/svg">
<path d="M0.916656 52H298.809M165.191 39.7083H313.125" stroke="white"/>
<g filter="url(#filter0_d_6_11)">
<path d="M13.1291 31.1438C11.1888 31.1438 9.48445 30.853 8.01608 30.2715C6.54772 29.7164 5.40711 28.8044 4.59427 27.5356C3.78142 26.2668 3.375 24.575 3.375 22.4603C3.375 20.3457 3.71587 18.2838 4.39761 16.2749C5.10557 14.2395 6.07574 12.3495 7.30812 10.6048C8.5405 8.86021 9.98264 7.32706 11.6346 6.00537C13.3127 4.68369 15.1219 3.65278 17.0623 2.91263C19.0026 2.17249 21.0216 1.80242 23.1193 1.80242C25.4529 1.80242 27.3539 2.19892 28.8223 2.99193C30.2906 3.78495 31.3657 4.86873 32.0474 6.24328C32.7554 7.5914 33.1094 9.11133 33.1094 10.8031C33.1094 13.05 32.5719 15.4026 31.4968 17.8609C30.3955 20.3721 28.9534 22.6322 27.1704 24.6411C25.3874 26.6501 23.3028 28.2361 20.9167 29.3992C18.5568 30.5623 15.961 31.1438 13.1291 31.1438ZM16.7083 29.0423C18.2553 28.6194 19.7761 27.8396 21.2707 26.703C22.7653 25.5663 24.1157 24.205 25.3218 22.619C26.528 21.0329 27.485 19.3676 28.193 17.623C29.2943 14.9532 29.8449 12.442 29.8449 10.0894C29.8449 9.71931 29.8187 9.36246 29.7662 9.01882C29.74 8.67518 29.7007 8.34476 29.6482 8.02755C29.3598 6.4151 28.6912 5.27845 27.6423 4.61761C26.5935 3.95676 25.4136 3.62634 24.1025 3.62634C22.7391 3.62634 21.3494 3.9039 19.9334 4.459C18.5175 4.98768 17.2982 5.64852 16.2756 6.44153C15.017 7.44601 13.8502 8.59588 12.7752 9.89113C11.7001 11.1864 10.7955 12.5609 10.0613 14.0148C9.432 15.2836 8.9207 16.6714 8.52739 18.1781C8.1603 19.6584 7.97675 21.099 7.97675 22.5C7.97675 23.7688 8.1603 24.9319 8.52739 25.9892C8.89448 27.0466 9.49756 27.9057 10.3366 28.5665C11.1757 29.2009 12.2901 29.5181 13.6798 29.5181C14.5713 29.5181 15.5808 29.3595 16.7083 29.0423Z" fill="white"/>
<path d="M43.1075 30.1129C42.216 30.1129 41.5998 29.8486 41.2589 29.3199C40.9443 28.7648 40.787 28.1304 40.787 27.4167C40.787 26.5444 40.9574 25.5002 41.2983 24.2843C41.6391 23.0419 42.0324 21.7995 42.4782 20.5571C42.9502 19.2883 43.3697 18.1649 43.7368 17.1868C43.8417 16.9489 43.8941 16.6978 43.8941 16.4335C43.8941 16.1427 43.8023 15.9312 43.6188 15.7991C43.4353 15.6669 43.1993 15.6008 42.9108 15.6008C42.4913 15.6008 42.0193 15.733 41.4949 15.9973C40.6821 16.4202 39.9086 17.0943 39.1744 18.0195C38.4402 18.9447 37.8502 19.9095 37.4045 20.914C36.9063 22.0506 36.4605 23.1873 36.0672 24.3239C35.6739 25.4606 35.3592 26.3858 35.1233 27.0995C34.9659 27.5488 34.8217 28.0114 34.6906 28.4872C34.5595 28.963 34.4284 29.4256 34.2973 29.875H30.4822C30.4822 29.875 30.574 29.5446 30.7575 28.8837C30.9148 28.2229 31.1246 27.5621 31.3868 26.9012C31.8326 25.7381 32.2783 24.575 32.7241 23.412C33.196 22.2489 33.6025 21.218 33.9433 20.3192C34.0482 20.0549 34.2055 19.5659 34.4153 18.8522C34.6513 18.112 34.8611 17.3454 35.0446 16.5524C35.2544 15.7594 35.3592 15.1118 35.3592 14.6095C35.3592 14.3188 35.3199 14.1205 35.2413 14.0148C35.4772 14.0148 35.7395 14.0148 36.0279 14.0148C36.3425 13.9884 36.631 13.9751 36.8932 13.9751C37.2603 13.9751 37.6011 13.9884 37.9158 14.0148C38.2566 14.0412 38.4795 14.1073 38.5844 14.213C38.8991 14.4509 39.0564 14.7946 39.0564 15.244C39.0564 15.5612 38.9908 15.8784 38.8597 16.1956C38.7548 16.5128 38.6762 16.7771 38.6237 16.9886C38.9908 16.6449 39.371 16.3145 39.7643 15.9973C40.1577 15.6801 40.7607 15.2704 41.5736 14.7681C42.0455 14.4774 42.6355 14.2395 43.3435 14.0544C44.0514 13.8694 44.6939 13.7769 45.2707 13.7769C46.7653 13.7769 47.5126 14.4774 47.5126 15.8784C47.5126 16.1163 47.4864 16.3806 47.4339 16.6714C47.4077 16.9621 47.329 17.2793 47.1979 17.623C47.0668 18.0459 46.8571 18.6275 46.5686 19.3676C46.2802 20.1078 45.9787 20.9008 45.664 21.7466C45.3756 22.5661 45.1265 23.3459 44.9167 24.086C44.707 24.8262 44.6021 25.4209 44.6021 25.8703C44.6021 26.5047 44.8381 26.8219 45.31 26.8219C45.7296 26.8219 46.254 26.5576 46.8833 26.0289C47.4864 25.5267 48.0108 24.9848 48.4565 24.4032C49.0072 23.716 49.5054 22.989 49.9511 22.2224C50.4231 21.4294 50.8295 20.7025 51.1704 20.0417C51.3015 19.8302 51.3933 19.7245 51.4457 19.7245C51.603 19.7245 51.6817 19.9491 51.6817 20.3985C51.6817 20.61 51.6424 20.8611 51.5637 21.1519C51.5113 21.4162 51.4195 21.6673 51.2884 21.9052C50.9213 22.5397 50.4886 23.2401 49.9905 24.0067C49.4923 24.7733 48.981 25.5134 48.4565 26.2272C48.0894 26.7294 47.6044 27.2845 47.0013 27.8925C46.3982 28.5004 45.7558 29.0291 45.0741 29.4785C44.3923 29.9014 43.7368 30.1129 43.1075 30.1129Z" fill="white"/>
<path d="M51.8605 30.1129C51.1263 30.1129 50.5757 29.8486 50.2086 29.3199C49.8415 28.7648 49.658 28.0246 49.658 27.0995C49.658 26.9673 49.658 26.8351 49.658 26.703C49.658 26.5708 49.6711 26.4386 49.6973 26.3065C49.8284 25.302 50.0513 24.1653 50.3659 22.8965C50.7068 21.6277 51.1001 20.2928 51.5459 18.8918C51.8081 18.0988 52.1358 17.1075 52.5292 15.918C52.9487 14.7021 53.4338 13.4068 53.9844 12.0323C54.535 10.6313 55.1381 9.2435 55.7936 7.86895C56.4754 6.4944 57.2227 5.25201 58.0355 4.1418C58.8484 3.00515 59.7005 2.09319 60.5921 1.40591C61.5098 0.718637 62.4799 0.375 63.5026 0.375C64.3416 0.375 64.9185 0.586469 65.2331 1.00941C65.5478 1.40591 65.7051 1.88172 65.7051 2.43683C65.7051 3.01837 65.6002 3.61313 65.3905 4.2211C65.1807 4.80264 64.9709 5.29167 64.7612 5.68817C64.2892 6.63979 63.673 7.71035 62.9126 8.89986C62.1522 10.0894 61.3525 11.1996 60.5134 12.2305C60.0152 12.8914 59.399 13.6315 58.6648 14.4509C57.9306 15.2704 57.2358 16.0237 56.5803 16.711C55.951 17.3983 55.4921 17.8741 55.2037 18.1384L54.5744 19.9624C54.3908 20.4646 54.2073 21.0594 54.0237 21.7466C53.8664 22.4339 53.7222 23.1212 53.5911 23.8085C53.4862 24.4693 53.3944 25.0509 53.3158 25.5531C53.2896 25.6588 53.2765 25.7646 53.2765 25.8703C53.2765 25.976 53.2765 26.0685 53.2765 26.1478C53.2765 26.9409 53.578 27.3374 54.1811 27.3374C54.5482 27.3374 55.007 27.1655 55.5577 26.8219C56.0821 26.5047 56.5803 26.095 57.0522 25.5927C57.5504 25.0641 57.9044 24.6676 58.1142 24.4032C58.6386 23.716 59.1368 22.989 59.6088 22.2224C60.0807 21.4294 60.4872 20.7025 60.828 20.0417C60.9591 19.8302 61.0509 19.7245 61.1034 19.7245C61.2607 19.7245 61.3393 19.9491 61.3393 20.3985C61.3393 20.61 61.3 20.8611 61.2214 21.1519C61.1689 21.4162 61.0771 21.6673 60.946 21.9052C60.5789 22.5397 60.1463 23.2401 59.6481 24.0067C59.1499 24.7733 58.6386 25.5134 58.1142 26.2272C57.7209 26.7558 57.1702 27.3241 56.4623 27.9321C55.7543 28.5401 54.9939 29.0556 54.1811 29.4785C53.3682 29.9014 52.5947 30.1129 51.8605 30.1129ZM55.9903 15.8784C57.3013 14.3188 58.6255 12.6534 59.9628 10.8824C61.3262 9.0849 62.4537 7.26098 63.3452 5.41062C63.3977 5.27845 63.5157 5.01411 63.6992 4.61761C63.8828 4.2211 64.0532 3.78495 64.2105 3.30914C64.3678 2.8069 64.4465 2.38396 64.4465 2.04032C64.4465 1.59095 64.2761 1.36626 63.9352 1.36626H63.6599C63.319 1.36626 62.9126 1.60417 62.4406 2.07997C61.9949 2.55578 61.536 3.19019 61.064 3.9832C60.4609 4.98768 59.871 6.15076 59.2941 7.47245C58.7173 8.7677 58.1535 10.1422 57.6029 11.5961C57.0522 13.05 56.5147 14.4774 55.9903 15.8784Z" fill="white"/>
<path d="M68.1071 10.8427C67.4253 10.6048 67.0845 10.1555 67.0845 9.49462C67.0845 8.88665 67.3204 8.26546 67.7924 7.63105C68.2906 6.97021 68.8281 6.54727 69.405 6.36223C69.5361 6.30936 69.641 6.28293 69.7197 6.28293C69.8245 6.28293 69.9294 6.28293 70.0343 6.28293C70.4801 6.28293 70.8471 6.4151 71.1356 6.67943C71.424 6.94377 71.5682 7.24776 71.5682 7.5914C71.5682 8.0672 71.3191 8.46371 70.8209 8.78091C70.4276 8.72805 70.0474 8.82056 69.6803 9.05847C69.3132 9.29637 68.9855 9.58714 68.697 9.93078C68.4348 10.2744 68.2382 10.5784 68.1071 10.8427ZM61.3421 30.1129C61.0012 30.1129 60.6735 30.0336 60.3588 29.875C60.0442 29.7428 59.782 29.4653 59.5722 29.0423C59.2838 28.4079 59.1396 27.6546 59.1396 26.7823C59.1396 25.8306 59.2838 24.7733 59.5722 23.6102C59.8606 22.4207 60.2408 21.2047 60.7128 19.9624C60.8964 19.513 61.1323 18.9579 61.4208 18.297C61.7092 17.6362 62.0501 16.9754 62.4434 16.3145C62.8367 15.6537 63.2824 15.1118 63.7806 14.6888C64.3051 14.2395 64.8688 14.0148 65.4719 14.0148C65.7603 14.0148 66.1667 14.028 66.6912 14.0544C67.2156 14.0809 67.5958 14.0809 67.8318 14.0544C67.6744 14.1602 67.4909 14.3716 67.2811 14.6888C67.0714 15.006 66.8747 15.3365 66.6912 15.6801C66.5076 15.9973 66.3634 16.2484 66.2585 16.4335C65.5768 17.808 64.9344 19.1694 64.3313 20.5175C63.7282 21.8656 63.2693 23.1608 62.9547 24.4032C62.9022 24.6147 62.8629 24.8262 62.8367 25.0376C62.8105 25.2491 62.7974 25.4474 62.7974 25.6324C62.7974 26.399 63.0465 26.7823 63.5447 26.7823C63.7544 26.7823 63.9773 26.7294 64.2133 26.6237C64.4755 26.4915 64.777 26.2932 65.1179 26.0289C65.721 25.5531 66.2454 25.0112 66.6912 24.4032C67.2156 23.716 67.7138 22.989 68.1857 22.2224C68.6577 21.4294 69.0641 20.7025 69.405 20.0417C69.5361 19.8302 69.6279 19.7245 69.6803 19.7245C69.8376 19.7245 69.9163 19.9491 69.9163 20.3985C69.9163 20.61 69.877 20.8611 69.7983 21.1519C69.7459 21.4162 69.6541 21.6673 69.523 21.9052C69.1559 22.5397 68.7233 23.2401 68.2251 24.0067C67.7269 24.7733 67.2156 25.5134 66.6912 26.2272C66.3241 26.7294 65.839 27.2845 65.2359 27.8925C64.6328 28.5004 63.9904 29.0291 63.3087 29.4785C62.6269 29.9014 61.9714 30.1129 61.3421 30.1129Z" fill="white"/>
<path d="M78.4825 30.1129C77.591 30.1129 76.9748 29.8486 76.634 29.3199C76.3193 28.7648 76.162 28.1304 76.162 27.4167C76.162 26.5444 76.3324 25.5002 76.6733 24.2843C77.0142 23.0419 77.4075 21.7995 77.8532 20.5571C78.3252 19.2883 78.7447 18.1649 79.1118 17.1868C79.2167 16.9489 79.2691 16.6978 79.2691 16.4335C79.2691 16.1427 79.1774 15.9312 78.9938 15.7991C78.8103 15.6669 78.5743 15.6008 78.2859 15.6008C77.8663 15.6008 77.3944 15.733 76.8699 15.9973C76.0571 16.4202 75.2836 17.0943 74.5494 18.0195C73.8152 18.9447 73.2252 19.9095 72.7795 20.914C72.2813 22.0506 71.8355 23.1873 71.4422 24.3239C71.0489 25.4606 70.7343 26.3858 70.4983 27.0995C70.341 27.5488 70.1967 28.0114 70.0656 28.4872C69.9345 28.963 69.8034 29.4256 69.6723 29.875H65.8572C65.8572 29.875 65.949 29.5446 66.1325 28.8837C66.2898 28.2229 66.4996 27.5621 66.7618 26.9012C67.2076 25.7381 67.6533 24.575 68.0991 23.412C68.5711 22.2489 68.9775 21.218 69.3184 20.3192C69.4232 20.0549 69.5806 19.5659 69.7903 18.8522C70.0263 18.112 70.2361 17.3454 70.4196 16.5524C70.6294 15.7594 70.7343 15.1118 70.7343 14.6095C70.7343 14.3188 70.6949 14.1205 70.6163 14.0148C70.8523 14.0148 71.1145 14.0148 71.4029 14.0148C71.7176 13.9884 72.006 13.9751 72.2682 13.9751C72.6353 13.9751 72.9762 13.9884 73.2908 14.0148C73.6317 14.0412 73.8545 14.1073 73.9594 14.213C74.2741 14.4509 74.4314 14.7946 74.4314 15.244C74.4314 15.5612 74.3659 15.8784 74.2347 16.1956C74.1299 16.5128 74.0512 16.7771 73.9988 16.9886C74.3659 16.6449 74.7461 16.3145 75.1394 15.9973C75.5327 15.6801 76.1358 15.2704 76.9486 14.7681C77.4206 14.4774 78.0105 14.2395 78.7185 14.0544C79.4265 13.8694 80.0689 13.7769 80.6457 13.7769C82.1403 13.7769 82.8876 14.4774 82.8876 15.8784C82.8876 16.1163 82.8614 16.3806 82.809 16.6714C82.7827 16.9621 82.7041 17.2793 82.573 17.623C82.4419 18.0459 82.2321 18.6275 81.9437 19.3676C81.6552 20.1078 81.3537 20.9008 81.039 21.7466C80.7506 22.5661 80.5015 23.3459 80.2918 24.086C80.082 24.8262 79.9771 25.4209 79.9771 25.8703C79.9771 26.5047 80.2131 26.8219 80.6851 26.8219C81.1046 26.8219 81.629 26.5576 82.2583 26.0289C82.8614 25.5267 83.3858 24.9848 83.8316 24.4032C84.3822 23.716 84.8804 22.989 85.3261 22.2224C85.7981 21.4294 86.2045 20.7025 86.5454 20.0417C86.6765 19.8302 86.7683 19.7245 86.8207 19.7245C86.9781 19.7245 87.0567 19.9491 87.0567 20.3985C87.0567 20.61 87.0174 20.8611 86.9387 21.1519C86.8863 21.4162 86.7945 21.6673 86.6634 21.9052C86.2963 22.5397 85.8637 23.2401 85.3655 24.0067C84.8673 24.7733 84.356 25.5134 83.8316 26.2272C83.4645 26.7294 82.9794 27.2845 82.3763 27.8925C81.7732 28.5004 81.1308 29.0291 80.4491 29.4785C79.7673 29.9014 79.1118 30.1129 78.4825 30.1129Z" fill="white"/>
<path d="M94.3152 29.3199C93.109 29.9543 91.8373 30.2715 90.5 30.2715C89.3725 30.2715 88.3237 29.994 87.3535 29.4388C86.3834 28.8837 85.7279 27.9982 85.387 26.7823C85.2297 26.2272 85.151 25.6456 85.151 25.0376C85.151 24.0332 85.3214 23.0022 85.6623 21.9449C86.0294 20.8611 86.5014 19.8698 87.0782 18.9711C87.9697 17.5701 89.0972 16.407 90.4607 15.4819C91.8242 14.5567 93.3319 14.0941 94.9838 14.0941C96.2162 14.0941 97.1732 14.4113 97.855 15.0457C98.5367 15.6801 98.8776 16.4203 98.8776 17.2661C98.8776 18.2706 98.5367 19.1561 97.855 19.9227C97.1995 20.6629 96.3342 21.2312 95.2591 21.6277C94.7347 21.8127 94.171 21.9581 93.5679 22.0638C92.991 22.1431 92.4404 22.1828 91.916 22.1828C90.8409 22.1828 90.015 22.0374 89.4381 21.7466C88.9399 23.0419 88.6908 24.2314 88.6908 25.3152C88.6908 26.2932 88.9137 27.0995 89.3594 27.7339C89.8052 28.3418 90.5132 28.6458 91.4833 28.6458C92.2962 28.6458 93.0959 28.4211 93.8825 27.9718C94.6954 27.5224 95.4427 26.9673 96.1244 26.3065C96.8324 25.6456 97.4223 25.0112 97.8943 24.4032C98.2614 23.9539 98.576 23.5309 98.8383 23.1344C99.1005 22.7379 99.3758 22.2885 99.6642 21.7863C99.9526 21.2576 100.294 20.61 100.687 19.8434C100.792 19.6584 100.883 19.5659 100.962 19.5659C101.119 19.5659 101.198 19.7773 101.198 20.2003C101.198 20.4382 101.159 20.7025 101.08 20.9933C101.028 21.2576 100.923 21.5352 100.765 21.8259C100.398 22.4868 99.9526 23.2137 99.4282 24.0067C98.93 24.7733 98.4187 25.5134 97.8943 26.2272C97.4223 26.8616 96.8848 27.4431 96.2817 27.9718C95.6786 28.5004 95.0231 28.9498 94.3152 29.3199ZM90.736 20.8743C90.8671 20.9536 91.0113 21.0065 91.1687 21.0329C91.326 21.0594 91.4833 21.0726 91.6407 21.0726C92.1651 21.0726 92.6895 20.9536 93.2139 20.7157C93.7383 20.4514 94.1841 20.1871 94.5512 19.9227C95.1542 19.4998 95.6655 18.9975 96.0851 18.416C96.5046 17.8345 96.7406 17.1736 96.793 16.4335C96.8193 16.1163 96.7406 15.8519 96.557 15.6405C96.3997 15.4026 96.1113 15.2836 95.6918 15.2836C95.482 15.2836 95.2198 15.3233 94.9051 15.4026C94.4856 15.5083 94.0661 15.7065 93.6465 15.9973C93.227 16.2881 92.8206 16.6317 92.4273 17.0282C92.2962 17.1604 92.0602 17.4247 91.7193 17.8212C91.4047 18.1913 91.1031 18.6142 90.8147 19.0901C90.5263 19.5394 90.3821 19.9359 90.3821 20.2796C90.3821 20.5703 90.5 20.7686 90.736 20.8743Z" fill="white"/>
<path d="M135.503 30.1922C134.507 30.1922 133.746 29.9279 133.222 29.3992C132.697 28.8705 132.343 28.1965 132.16 27.377C131.976 26.5576 131.858 25.7117 131.806 24.8394C131.806 24.3371 131.832 23.7424 131.884 23.0551C131.937 22.3678 132.002 21.707 132.081 21.0726C132.186 20.4117 132.265 19.9227 132.317 19.6055H123.31C121.632 21.3766 120.033 23.108 118.512 24.7997C117.017 26.4651 115.549 28.1568 114.107 29.875H110.174C110.855 29.2406 111.747 28.3947 112.848 27.3374C113.976 26.2536 115.247 25.0244 116.663 23.6499C118.079 22.2753 119.548 20.8215 121.068 19.2883C122.615 17.7287 124.162 16.1691 125.709 14.6095C127.256 13.0235 128.712 11.5036 130.075 10.0497C131.465 8.56944 132.697 7.23454 133.772 6.04503C134.297 5.46349 134.782 4.88194 135.228 4.3004C135.7 3.69243 136.224 3.19019 136.801 2.79368C137.378 2.39718 138.086 2.19892 138.925 2.19892H141.757C141.311 2.62186 140.865 3.33557 140.419 4.34005C139.974 5.34453 139.567 6.42832 139.2 7.5914C138.859 8.75448 138.571 9.81183 138.335 10.7634C137.994 12.1909 137.64 13.7372 137.273 15.4026C136.932 17.0679 136.657 18.72 136.447 20.3589C136.237 21.9978 136.172 23.5177 136.25 24.9187C136.276 25.4209 136.368 25.9496 136.526 26.5047C136.709 27.0334 136.958 27.496 137.273 27.8925C137.614 28.2625 138.033 28.4476 138.531 28.4476C138.977 28.4476 139.462 28.2758 139.987 27.9321L140.223 28.289C139.882 28.8177 139.226 29.267 138.256 29.6371C137.312 30.0072 136.394 30.1922 135.503 30.1922ZM119.77 10.0894C119.351 9.64001 119.036 9.17742 118.826 8.70161C118.643 8.22581 118.551 7.77643 118.551 7.35349C118.551 6.82482 118.656 6.32258 118.866 5.84677C119.102 5.34453 119.377 4.9216 119.692 4.57796C120.321 3.86425 121.108 3.33557 122.052 2.99193C122.996 2.6483 123.992 2.43683 125.041 2.35753C126.116 2.25179 127.138 2.19892 128.109 2.19892H136.919C136.368 2.75403 135.529 3.19019 134.402 3.50739C133.3 3.79816 132.094 4.02285 130.783 4.18145C129.472 4.31362 128.2 4.44579 126.968 4.57796C125.762 4.68369 124.765 4.82908 123.979 5.01411C122.589 5.33132 121.527 5.93929 120.793 6.83804C120.085 7.73678 119.744 8.82056 119.77 10.0894ZM125.041 17.623H132.592C132.907 15.8784 133.274 14.1337 133.694 12.3891C134.139 10.6445 134.533 9.11133 134.874 7.78965C133.274 9.3228 131.635 10.922 129.957 12.5874C128.305 14.2263 126.667 15.9048 125.041 17.623Z" fill="white"/>
<path d="M136.361 39.7083C136.492 39.5233 136.662 39.1929 136.872 38.7171C137.082 38.2677 137.304 37.7787 137.54 37.25C137.776 36.7213 137.973 36.272 138.13 35.9019C138.576 34.7917 139.087 33.4303 139.664 31.8179C140.241 30.2319 140.831 28.5665 141.434 26.8219C142.037 25.0773 142.614 23.412 143.165 21.8259C143.715 20.2399 144.201 18.9315 144.62 17.9005C145.013 16.9489 145.354 16.1956 145.643 15.6405C145.931 15.0589 146.338 14.6492 146.862 14.4113C147.413 14.147 148.239 14.0148 149.34 14.0148H150.52C150.153 14.2791 149.668 14.8871 149.064 15.8387C148.488 16.7639 147.937 17.7419 147.413 18.7728C147.596 18.5349 147.767 18.3103 147.924 18.0988C148.081 17.8609 148.252 17.6494 148.435 17.4644C149.274 16.4335 150.166 15.5744 151.11 14.8871C152.054 14.1998 152.971 13.8562 153.863 13.8562C154.597 13.8562 155.213 14.1337 155.711 14.6888C156.236 15.244 156.498 16.1823 156.498 17.504C156.498 18.72 156.262 19.9491 155.79 21.1915C155.344 22.4075 154.741 23.5706 153.981 24.6808C153.22 25.7646 152.381 26.7294 151.464 27.5753C151.28 27.7603 151.07 27.9453 150.834 28.1304C150.625 28.289 150.402 28.4476 150.166 28.6062C151.005 28.6855 151.831 28.4872 152.644 28.0114C153.483 27.5356 154.243 26.9541 154.925 26.2668C155.633 25.5795 156.21 24.9583 156.655 24.4032C157.18 23.716 157.704 22.9229 158.229 22.0242C158.779 21.1254 159.225 20.3324 159.566 19.6452C159.671 19.4601 159.763 19.3676 159.841 19.3676C160.051 19.3676 160.156 19.6055 160.156 20.0813C160.156 20.5043 160.025 20.9404 159.763 21.3898C159.553 21.7863 159.264 22.2885 158.897 22.8965C158.53 23.5045 158.202 24.0332 157.914 24.4825C156.708 26.2536 155.305 27.7074 153.706 28.8441C152.106 29.9807 150.179 30.5491 147.924 30.5491C147.74 30.5491 147.544 30.5491 147.334 30.5491C147.15 30.5491 146.954 30.5358 146.744 30.5094C146.115 30.4565 145.525 30.2979 144.974 30.0336C144.423 29.7957 144.056 29.3331 143.873 28.6458L141.67 35.5847C141.382 36.5099 141.12 37.2764 140.884 37.8844C140.621 38.4924 140.307 38.9418 139.94 39.2325C139.546 39.5497 138.983 39.7083 138.248 39.7083H136.361ZM145.839 28.8441C146.285 28.8441 146.796 28.6194 147.373 28.17C147.95 27.6942 148.514 27.1127 149.064 26.4254C149.641 25.7117 150.126 25.0244 150.52 24.3636C151.123 23.3062 151.634 22.2224 152.054 21.1122C152.473 20.002 152.683 19.0901 152.683 18.3763C152.683 17.5833 152.368 17.1868 151.739 17.1868C151.188 17.1868 150.585 17.4512 149.93 17.9798C149.458 18.3499 148.92 18.8918 148.317 19.6055C147.74 20.3192 147.163 21.1254 146.587 22.0242C146.036 22.8965 145.577 23.7953 145.21 24.7204C144.869 25.6192 144.699 26.4386 144.699 27.1788C144.699 27.3109 144.699 27.4431 144.699 27.5753C144.725 27.681 144.751 27.8 144.777 27.9321C144.909 28.5401 145.262 28.8441 145.839 28.8441Z" fill="white"/>
<path d="M151.839 39.7083C151.971 39.5233 152.141 39.1929 152.351 38.7171C152.561 38.2677 152.783 37.7787 153.019 37.25C153.255 36.7213 153.452 36.272 153.609 35.9019C154.055 34.7917 154.566 33.4303 155.143 31.8179C155.72 30.2319 156.31 28.5665 156.913 26.8219C157.516 25.0773 158.093 23.412 158.644 21.8259C159.194 20.2399 159.68 18.9315 160.099 17.9005C160.492 16.9489 160.833 16.1956 161.122 15.6405C161.41 15.0589 161.817 14.6492 162.341 14.4113C162.892 14.147 163.718 14.0148 164.819 14.0148H165.999C165.632 14.2791 165.147 14.8871 164.543 15.8387C163.967 16.7639 163.416 17.7419 162.892 18.7728C163.075 18.5349 163.246 18.3103 163.403 18.0988C163.56 17.8609 163.731 17.6494 163.914 17.4644C164.753 16.4335 165.645 15.5744 166.589 14.8871C167.533 14.1998 168.45 13.8562 169.342 13.8562C170.076 13.8562 170.692 14.1337 171.19 14.6888C171.715 15.244 171.977 16.1823 171.977 17.504C171.977 18.72 171.741 19.9491 171.269 21.1915C170.823 22.4075 170.22 23.5706 169.46 24.6808C168.699 25.7646 167.86 26.7294 166.943 27.5753C166.759 27.7603 166.549 27.9453 166.313 28.1304C166.104 28.289 165.881 28.4476 165.645 28.6062C166.484 28.6855 167.31 28.4872 168.123 28.0114C168.962 27.5356 169.722 26.9541 170.404 26.2668C171.112 25.5795 171.689 24.9583 172.134 24.4032C172.659 23.716 173.183 22.9229 173.708 22.0242C174.258 21.1254 174.704 20.3324 175.045 19.6452C175.15 19.4601 175.242 19.3676 175.32 19.3676C175.53 19.3676 175.635 19.6055 175.635 20.0813C175.635 20.5043 175.504 20.9404 175.242 21.3898C175.032 21.7863 174.743 22.2885 174.376 22.8965C174.009 23.5045 173.681 24.0332 173.393 24.4825C172.187 26.2536 170.784 27.7074 169.185 28.8441C167.585 29.9807 165.658 30.5491 163.403 30.5491C163.219 30.5491 163.023 30.5491 162.813 30.5491C162.629 30.5491 162.433 30.5358 162.223 30.5094C161.594 30.4565 161.004 30.2979 160.453 30.0336C159.902 29.7957 159.535 29.3331 159.352 28.6458L157.149 35.5847C156.861 36.5099 156.599 37.2764 156.363 37.8844C156.1 38.4924 155.786 38.9418 155.419 39.2325C155.025 39.5497 154.462 39.7083 153.727 39.7083H151.839ZM161.318 28.8441C161.764 28.8441 162.275 28.6194 162.852 28.17C163.429 27.6942 163.993 27.1127 164.543 26.4254C165.12 25.7117 165.605 25.0244 165.999 24.3636C166.602 23.3062 167.113 22.2224 167.533 21.1122C167.952 20.002 168.162 19.0901 168.162 18.3763C168.162 17.5833 167.847 17.1868 167.218 17.1868C166.667 17.1868 166.064 17.4512 165.409 17.9798C164.937 18.3499 164.399 18.8918 163.796 19.6055C163.219 20.3192 162.642 21.1254 162.066 22.0242C161.515 22.8965 161.056 23.7953 160.689 24.7204C160.348 25.6192 160.178 26.4386 160.178 27.1788C160.178 27.3109 160.178 27.4431 160.178 27.5753C160.204 27.681 160.23 27.8 160.256 27.9321C160.387 28.5401 160.741 28.8441 161.318 28.8441Z" fill="white"/>
<path d="M175.539 30.1129C174.805 30.1129 174.254 29.8486 173.887 29.3199C173.52 28.7648 173.336 28.0246 173.336 27.0995C173.336 26.9673 173.336 26.8351 173.336 26.703C173.336 26.5708 173.349 26.4386 173.375 26.3065C173.507 25.302 173.729 24.1653 174.044 22.8965C174.385 21.6277 174.778 20.2928 175.224 18.8918C175.486 18.0988 175.814 17.1075 176.207 15.918C176.627 14.7021 177.112 13.4068 177.663 12.0323C178.213 10.6313 178.816 9.2435 179.472 7.86895C180.154 6.4944 180.901 5.25201 181.714 4.1418C182.527 3.00515 183.379 2.09319 184.27 1.40591C185.188 0.718637 186.158 0.375 187.181 0.375C188.02 0.375 188.597 0.586469 188.911 1.00941C189.226 1.40591 189.383 1.88172 189.383 2.43683C189.383 3.01837 189.278 3.61313 189.069 4.2211C188.859 4.80264 188.649 5.29167 188.439 5.68817C187.967 6.63979 187.351 7.71035 186.591 8.89986C185.83 10.0894 185.031 11.1996 184.192 12.2305C183.693 12.8914 183.077 13.6315 182.343 14.4509C181.609 15.2704 180.914 16.0237 180.258 16.711C179.629 17.3983 179.17 17.8741 178.882 18.1384L178.253 19.9624C178.069 20.4646 177.885 21.0594 177.702 21.7466C177.545 22.4339 177.4 23.1212 177.269 23.8085C177.164 24.4693 177.073 25.0509 176.994 25.5531C176.968 25.6588 176.955 25.7646 176.955 25.8703C176.955 25.976 176.955 26.0685 176.955 26.1478C176.955 26.9409 177.256 27.3374 177.859 27.3374C178.226 27.3374 178.685 27.1655 179.236 26.8219C179.76 26.5047 180.258 26.095 180.73 25.5927C181.229 25.0641 181.583 24.6676 181.792 24.4032C182.317 23.716 182.815 22.989 183.287 22.2224C183.759 21.4294 184.165 20.7025 184.506 20.0417C184.637 19.8302 184.729 19.7245 184.782 19.7245C184.939 19.7245 185.018 19.9491 185.018 20.3985C185.018 20.61 184.978 20.8611 184.9 21.1519C184.847 21.4162 184.755 21.6673 184.624 21.9052C184.257 22.5397 183.824 23.2401 183.326 24.0067C182.828 24.7733 182.317 25.5134 181.792 26.2272C181.399 26.7558 180.848 27.3241 180.14 27.9321C179.432 28.5401 178.672 29.0556 177.859 29.4785C177.046 29.9014 176.273 30.1129 175.539 30.1129ZM179.668 15.8784C180.98 14.3188 182.304 12.6534 183.641 10.8824C185.004 9.0849 186.132 7.26098 187.023 5.41062C187.076 5.27845 187.194 5.01411 187.377 4.61761C187.561 4.2211 187.731 3.78495 187.889 3.30914C188.046 2.8069 188.125 2.38396 188.125 2.04032C188.125 1.59095 187.954 1.36626 187.613 1.36626H187.338C186.997 1.36626 186.591 1.60417 186.119 2.07997C185.673 2.55578 185.214 3.19019 184.742 3.9832C184.139 4.98768 183.549 6.15076 182.972 7.47245C182.395 8.7677 181.832 10.1422 181.281 11.5961C180.73 13.05 180.193 14.4774 179.668 15.8784Z" fill="white"/>
<path d="M192.336 29.3199C191.13 29.9543 189.858 30.2715 188.521 30.2715C187.393 30.2715 186.344 29.994 185.374 29.4388C184.404 28.8837 183.749 27.9982 183.408 26.7823C183.25 26.2272 183.172 25.6456 183.172 25.0376C183.172 24.0332 183.342 23.0022 183.683 21.9449C184.05 20.8611 184.522 19.8698 185.099 18.9711C185.99 17.5701 187.118 16.407 188.481 15.4819C189.845 14.5567 191.353 14.0941 193.005 14.0941C194.237 14.0941 195.194 14.4113 195.876 15.0457C196.557 15.6801 196.898 16.4203 196.898 17.2661C196.898 18.2706 196.557 19.1561 195.876 19.9227C195.22 20.6629 194.355 21.2312 193.28 21.6277C192.755 21.8127 192.192 21.9581 191.589 22.0638C191.012 22.1431 190.461 22.1828 189.937 22.1828C188.862 22.1828 188.036 22.0374 187.459 21.7466C186.961 23.0419 186.712 24.2314 186.712 25.3152C186.712 26.2932 186.934 27.0995 187.38 27.7339C187.826 28.3418 188.534 28.6458 189.504 28.6458C190.317 28.6458 191.117 28.4211 191.903 27.9718C192.716 27.5224 193.463 26.9673 194.145 26.3065C194.853 25.6456 195.443 25.0112 195.915 24.4032C196.282 23.9539 196.597 23.5309 196.859 23.1344C197.121 22.7379 197.396 22.2885 197.685 21.7863C197.973 21.2576 198.314 20.61 198.708 19.8434C198.812 19.6584 198.904 19.5659 198.983 19.5659C199.14 19.5659 199.219 19.7773 199.219 20.2003C199.219 20.4382 199.179 20.7025 199.101 20.9933C199.048 21.2576 198.944 21.5352 198.786 21.8259C198.419 22.4868 197.973 23.2137 197.449 24.0067C196.951 24.7733 196.439 25.5134 195.915 26.2272C195.443 26.8616 194.906 27.4431 194.302 27.9718C193.699 28.5004 193.044 28.9498 192.336 29.3199ZM188.757 20.8743C188.888 20.9536 189.032 21.0065 189.189 21.0329C189.347 21.0594 189.504 21.0726 189.661 21.0726C190.186 21.0726 190.71 20.9536 191.235 20.7157C191.759 20.4514 192.205 20.1871 192.572 19.9227C193.175 19.4998 193.686 18.9975 194.106 18.416C194.525 17.8345 194.761 17.1736 194.814 16.4335C194.84 16.1163 194.761 15.8519 194.578 15.6405C194.42 15.4026 194.132 15.2836 193.712 15.2836C193.503 15.2836 193.24 15.3233 192.926 15.4026C192.506 15.5083 192.087 15.7065 191.667 15.9973C191.248 16.2881 190.841 16.6317 190.448 17.0282C190.317 17.1604 190.081 17.4247 189.74 17.8212C189.425 18.1913 189.124 18.6142 188.835 19.0901C188.547 19.5394 188.403 19.9359 188.403 20.2796C188.403 20.5703 188.521 20.7686 188.757 20.8743Z" fill="white"/>
<path d="M235.333 30.1922C234.31 30.1922 233.615 29.9279 233.248 29.3992C232.881 28.8441 232.698 28.1568 232.698 27.3374C232.698 26.5972 232.803 25.7646 233.012 24.8394C233.248 23.7027 233.668 22.3546 234.271 20.795C234.9 19.2354 235.595 17.6098 236.355 15.918C237.142 14.1998 237.916 12.5609 238.676 11.0013C239.463 9.44176 240.144 8.10685 240.721 6.99664C240.38 7.31384 240.026 7.64427 239.659 7.9879C239.318 8.33154 238.964 8.71483 238.597 9.13777C237.077 10.856 235.687 12.4948 234.428 14.0544C233.196 15.5876 232.003 17.1075 230.849 18.6142C229.722 20.0945 228.555 21.6145 227.349 23.1741C226.693 24.0464 226.169 24.7072 225.775 25.1566C225.408 25.5795 225.067 25.8703 224.753 26.0289C224.464 26.1611 224.097 26.2272 223.651 26.2272C222.996 26.2272 222.249 26.0289 221.41 25.6324C221.777 25.183 222.026 24.2182 222.157 22.7379C222.314 21.2576 222.393 19.5659 222.393 17.6626C222.393 15.733 222.327 13.7372 222.196 11.6754C222.065 9.61358 221.868 7.78965 221.606 6.20363C221.449 6.46797 221.161 7.04951 220.741 7.94825C220.348 8.847 219.863 9.95721 219.286 11.2789C218.735 12.5741 218.145 13.9884 217.516 15.5215C216.887 17.0282 216.27 18.5482 215.667 20.0813C215.09 21.588 214.566 23.0155 214.094 24.3636C213.648 25.7117 213.307 26.8748 213.071 27.8528C212.835 28.8309 212.757 29.5049 212.835 29.875H209.217C209.794 28.3947 210.449 26.7558 211.184 24.9583C211.944 23.1344 212.731 21.2708 213.543 19.3676C214.356 17.4644 215.156 15.614 215.943 13.8165C216.755 12.019 217.49 10.3802 218.145 8.89986C218.827 7.39314 219.391 6.15076 219.836 5.17271C220.282 4.19467 220.571 3.58669 220.702 3.34879C219.548 3.32236 218.368 3.44131 217.162 3.70564C215.956 3.94355 214.828 4.28719 213.779 4.73656C212.731 5.18593 211.839 5.70139 211.105 6.28293C210.397 6.86447 209.938 7.47245 209.728 8.10685C209.702 8.18616 209.65 8.22581 209.571 8.22581C209.361 8.22581 209.256 8.05399 209.256 7.71035C209.256 7.65748 209.256 7.60461 209.256 7.55175C209.282 7.47245 209.309 7.39314 209.335 7.31384C209.571 6.62657 209.859 6.01859 210.2 5.48992C210.567 4.96124 210.921 4.51187 211.262 4.1418C212.127 3.24305 213.098 2.70116 214.173 2.51613C215.248 2.30466 216.388 2.19892 217.594 2.19892H221.41C221.986 2.19892 222.55 2.19892 223.101 2.19892C223.651 2.19892 224.137 2.34431 224.556 2.63508C224.976 2.89942 225.251 3.42809 225.382 4.2211C225.487 4.77621 225.579 5.62209 225.657 6.75874C225.762 7.86895 225.841 9.11134 225.893 10.4859C225.972 11.8604 226.038 13.2218 226.09 14.5699C226.142 15.918 226.182 17.0811 226.208 18.0591C226.208 18.112 226.208 18.2706 226.208 18.5349C226.234 18.7728 226.247 19.0768 226.247 19.4469C226.247 19.7905 226.234 20.1871 226.208 20.6364C226.208 21.0594 226.182 21.4691 226.129 21.8656C226.68 21.1783 227.362 20.3324 228.175 19.328C229.014 18.297 229.918 17.1868 230.888 15.9973C231.859 14.7814 232.842 13.5654 233.838 12.3495C234.835 11.1335 235.792 9.97043 236.709 8.86021C237.627 7.75 238.427 6.78517 239.109 5.96572C239.817 5.11985 240.341 4.48544 240.682 4.0625C241.285 3.37522 242.045 2.89942 242.963 2.63508C243.881 2.34431 244.799 2.19892 245.716 2.19892H248.155C247.604 2.62186 247.001 3.33557 246.346 4.34005C245.69 5.34453 245.048 6.42832 244.418 7.5914C243.815 8.75448 243.278 9.81183 242.806 10.7634C242.124 12.1909 241.429 13.7372 240.721 15.4026C240.013 17.0679 239.384 18.72 238.833 20.3589C238.283 21.9978 237.876 23.5177 237.614 24.9187C237.535 25.3416 237.496 25.791 237.496 26.2668C237.496 26.8483 237.588 27.3638 237.771 27.8132C237.981 28.2361 238.348 28.4476 238.873 28.4476C239.292 28.4476 239.804 28.2758 240.407 27.9321H240.446C240.498 27.9321 240.538 27.985 240.564 28.0907C240.59 28.17 240.577 28.2361 240.525 28.289C240.026 28.8177 239.266 29.267 238.243 29.6371C237.221 30.0072 236.251 30.1922 235.333 30.1922Z" fill="white"/>
<path d="M253.704 30.1129C252.891 30.1129 252.327 29.7957 252.012 29.1613C251.724 28.5269 251.58 27.7471 251.58 26.8219C251.58 25.976 251.658 25.1434 251.816 24.3239C251.894 23.9539 251.973 23.5838 252.052 23.2137C252.157 22.8172 252.275 22.4075 252.406 21.9845C251.96 22.804 251.488 23.597 250.99 24.3636C250.518 25.1302 250.033 25.8042 249.534 26.3858C248.695 27.4167 247.804 28.2758 246.86 28.963C245.942 29.6503 245.025 29.9939 244.107 29.9939C243.373 29.9939 242.743 29.7296 242.219 29.2009C241.721 28.6458 241.472 27.6942 241.472 26.3461C241.472 24.9715 241.708 23.5573 242.18 22.1035C242.652 20.6496 243.307 19.3015 244.146 18.0591C245.011 16.7903 246.021 15.7726 247.175 15.006C248.355 14.2395 249.639 13.8562 251.029 13.8562C251.475 13.8562 251.96 13.9223 252.484 14.0544C253.009 14.1866 253.494 14.4377 253.94 14.8078C254.385 15.1514 254.687 15.6405 254.844 16.2749C254.87 16.222 254.897 16.1823 254.923 16.1559C254.975 16.1295 255.015 16.103 255.041 16.0766C255.408 15.4951 255.827 15.006 256.299 14.6095C256.771 14.213 257.296 14.0148 257.873 14.0148C258.161 14.0148 258.568 14.028 259.092 14.0544C259.616 14.0809 259.997 14.0809 260.233 14.0544C260.101 14.1602 259.918 14.3716 259.682 14.6888C259.472 15.006 259.276 15.3365 259.092 15.6801C258.908 15.9973 258.764 16.2484 258.659 16.4335C257.951 17.808 257.309 19.1694 256.732 20.5175C256.155 21.8656 255.709 23.1608 255.395 24.4032C255.316 24.6676 255.264 24.9187 255.238 25.1566C255.211 25.3681 255.198 25.5795 255.198 25.791C255.198 26.4783 255.421 26.8219 255.867 26.8219C256.286 26.8219 256.811 26.5576 257.44 26.0289C258.358 25.2888 259.158 24.3636 259.839 23.2534C260.547 22.1431 261.163 21.0726 261.688 20.0417C261.793 19.8566 261.884 19.7641 261.963 19.7641C262.12 19.7641 262.199 19.9888 262.199 20.4382C262.199 20.6496 262.16 20.8875 262.081 21.1519C262.029 21.4162 261.937 21.6673 261.806 21.9052C261.439 22.5397 260.954 23.3194 260.351 24.2446C259.774 25.1698 259.118 26.0818 258.384 26.9805C257.65 27.8528 256.876 28.593 256.063 29.2009C255.277 29.8089 254.49 30.1129 253.704 30.1129ZM245.877 26.6633C245.955 26.6897 246.073 26.703 246.231 26.703C246.729 26.703 247.266 26.4915 247.843 26.0685C248.42 25.6456 248.997 25.1037 249.574 24.4429C250.151 23.7556 250.662 23.0683 251.108 22.381C252.261 20.5307 253.114 19.1429 253.664 18.2177C254.215 17.2926 254.53 16.7639 254.608 16.6317C254.477 16.1823 254.241 15.8519 253.9 15.6405C253.586 15.429 253.205 15.3233 252.76 15.3233C252.183 15.3233 251.567 15.4819 250.911 15.7991C250.282 16.1163 249.744 16.4996 249.299 16.9489C248.617 17.6362 247.961 18.5217 247.332 19.6055C246.729 20.6893 246.231 21.7599 245.837 22.8172C245.47 23.8746 245.287 24.7601 245.287 25.4738C245.287 26.1346 245.483 26.5311 245.877 26.6633Z" fill="white"/>
<path d="M270.76 30.1129C269.868 30.1129 269.252 29.8486 268.911 29.3199C268.597 28.7648 268.439 28.1304 268.439 27.4167C268.439 26.5444 268.61 25.5002 268.951 24.2843C269.291 23.0419 269.685 21.7995 270.131 20.5571C270.602 19.2883 271.022 18.1649 271.389 17.1868C271.494 16.9489 271.546 16.6978 271.546 16.4335C271.546 16.1427 271.455 15.9312 271.271 15.7991C271.088 15.6669 270.852 15.6008 270.563 15.6008C270.144 15.6008 269.672 15.733 269.147 15.9973C268.334 16.4202 267.561 17.0943 266.827 18.0195C266.093 18.9447 265.503 19.9095 265.057 20.914C264.559 22.0506 264.113 23.1873 263.72 24.3239C263.326 25.4606 263.012 26.3858 262.776 27.0995C262.618 27.5488 262.474 28.0114 262.343 28.4872C262.212 28.963 262.081 29.4256 261.95 29.875H258.135C258.135 29.875 258.226 29.5446 258.41 28.8837C258.567 28.2229 258.777 27.5621 259.039 26.9012C259.485 25.7381 259.931 24.575 260.376 23.412C260.848 22.2489 261.255 21.218 261.596 20.3192C261.701 20.0549 261.858 19.5659 262.068 18.8522C262.304 18.112 262.513 17.3454 262.697 16.5524C262.907 15.7594 263.012 15.1118 263.012 14.6095C263.012 14.3188 262.972 14.1205 262.894 14.0148C263.13 14.0148 263.392 14.0148 263.68 14.0148C263.995 13.9884 264.283 13.9751 264.545 13.9751C264.913 13.9751 265.253 13.9884 265.568 14.0148C265.909 14.0412 266.132 14.1073 266.237 14.213C266.551 14.4509 266.709 14.7946 266.709 15.244C266.709 15.5612 266.643 15.8784 266.512 16.1956C266.407 16.5128 266.329 16.7771 266.276 16.9886C266.643 16.6449 267.023 16.3145 267.417 15.9973C267.81 15.6801 268.413 15.2704 269.226 14.7681C269.698 14.4774 270.288 14.2395 270.996 14.0544C271.704 13.8694 272.346 13.7769 272.923 13.7769C274.418 13.7769 275.165 14.4774 275.165 15.8784C275.165 16.1163 275.139 16.3806 275.086 16.6714C275.06 16.9621 274.981 17.2793 274.85 17.623C274.719 18.0459 274.509 18.6275 274.221 19.3676C273.933 20.1078 273.631 20.9008 273.316 21.7466C273.028 22.5661 272.779 23.3459 272.569 24.086C272.359 24.8262 272.254 25.4209 272.254 25.8703C272.254 26.5047 272.49 26.8219 272.962 26.8219C273.382 26.8219 273.906 26.5576 274.536 26.0289C275.139 25.5267 275.663 24.9848 276.109 24.4032C276.66 23.716 277.158 22.989 277.603 22.2224C278.075 21.4294 278.482 20.7025 278.823 20.0417C278.954 19.8302 279.046 19.7245 279.098 19.7245C279.255 19.7245 279.334 19.9491 279.334 20.3985C279.334 20.61 279.295 20.8611 279.216 21.1519C279.164 21.4162 279.072 21.6673 278.941 21.9052C278.574 22.5397 278.141 23.2401 277.643 24.0067C277.145 24.7733 276.633 25.5134 276.109 26.2272C275.742 26.7294 275.257 27.2845 274.654 27.8925C274.051 28.5004 273.408 29.0291 272.726 29.4785C272.045 29.9014 271.389 30.1129 270.76 30.1129Z" fill="white"/>
<path d="M289.542 30.1129C288.756 30.1129 288.205 29.8221 287.89 29.2406C287.602 28.6326 287.458 27.8793 287.458 26.9805C287.458 26.5576 287.484 26.1346 287.536 25.7117C287.589 25.2623 287.654 24.8129 287.733 24.3636C287.786 23.9671 287.89 23.4913 288.048 22.9362C288.205 22.3546 288.389 21.7334 288.598 21.0726C288.1 22.0771 287.523 23.108 286.868 24.1653C286.212 25.1962 285.491 26.1611 284.705 27.0598C283.944 27.9321 283.144 28.6458 282.305 29.2009C281.493 29.7296 280.667 29.9939 279.827 29.9939C279.093 29.9939 278.464 29.7296 277.94 29.2009C277.441 28.6458 277.192 27.6942 277.192 26.3461C277.192 24.9715 277.428 23.5573 277.9 22.1035C278.372 20.6496 279.028 19.3015 279.867 18.0591C280.732 16.7903 281.742 15.7726 282.895 15.006C284.075 14.2395 285.36 13.8562 286.75 13.8562C287.327 13.8562 287.969 13.9751 288.677 14.213C289.385 14.4509 289.923 14.9135 290.29 15.6008C290.421 15.3893 290.526 15.1779 290.604 14.9664C290.683 14.7549 290.762 14.5699 290.84 14.4113C291.47 13.0103 292.007 11.6886 292.453 10.4462C292.899 9.20385 293.292 8.23902 293.633 7.55175C294.078 6.653 294.432 5.97894 294.695 5.52957C294.957 5.05376 295.193 4.72334 295.403 4.5383C295.639 4.35327 295.901 4.2211 296.189 4.1418C296.425 4.08893 296.687 4.04928 296.976 4.02285C297.264 3.99641 297.566 3.9832 297.881 3.9832C298.195 3.9832 298.549 3.9832 298.942 3.9832C299.362 3.9832 299.624 3.96998 299.729 3.94355C299.283 4.26075 298.759 4.90838 298.156 5.88642C297.553 6.86447 296.923 8.04077 296.268 9.41532C295.612 10.7899 294.97 12.2569 294.341 13.8165C293.738 15.3497 293.174 16.8828 292.649 18.416C292.151 19.9227 291.745 21.2973 291.43 22.5397C291.142 23.782 290.998 24.7865 290.998 25.5531C290.998 26.399 291.234 26.8219 291.706 26.8219C292.02 26.8219 292.387 26.6633 292.807 26.3461C293.253 26.0289 293.659 25.672 294.026 25.2755C294.393 24.879 294.655 24.5883 294.813 24.4032C295.337 23.716 295.835 22.989 296.307 22.2224C296.779 21.4294 297.186 20.6893 297.527 20.002C297.658 19.7905 297.749 19.6848 297.802 19.6848C297.985 19.6848 298.077 19.9227 298.077 20.3985C298.077 20.9008 297.946 21.3766 297.684 21.8259C297.317 22.4603 296.871 23.1741 296.347 23.9671C295.848 24.7336 295.337 25.487 294.813 26.2272C294.446 26.703 293.96 27.2448 293.357 27.8528C292.781 28.4608 292.151 28.9895 291.47 29.4388C290.814 29.8882 290.172 30.1129 289.542 30.1129ZM281.597 26.6633C281.676 26.6897 281.794 26.703 281.951 26.703C282.686 26.703 283.538 26.2139 284.508 25.2359C285.504 24.2314 286.501 22.9229 287.497 21.3105C287.707 20.9933 287.956 20.5439 288.244 19.9624C288.533 19.3808 288.834 18.7464 289.149 18.0591C289.49 17.3454 289.805 16.6846 290.093 16.0766C289.909 15.8123 289.673 15.6272 289.385 15.5215C289.123 15.4158 288.834 15.3629 288.52 15.3629C287.943 15.3629 287.327 15.5215 286.671 15.8387C286.016 16.1295 285.465 16.4996 285.019 16.9489C284.337 17.6362 283.682 18.5217 283.053 19.6055C282.45 20.6893 281.951 21.7599 281.558 22.8172C281.191 23.8746 281.007 24.7601 281.007 25.4738C281.007 26.1346 281.204 26.5311 281.597 26.6633Z" fill="white"/>
<path d="M304.747 10.8427C304.065 10.6048 303.725 10.1555 303.725 9.49462C303.725 8.88665 303.961 8.26546 304.433 7.63105C304.931 6.97021 305.468 6.54727 306.045 6.36223C306.176 6.30936 306.281 6.28293 306.36 6.28293C306.465 6.28293 306.57 6.28293 306.674 6.28293C307.12 6.28293 307.487 6.4151 307.776 6.67943C308.064 6.94377 308.208 7.24776 308.208 7.5914C308.208 8.0672 307.959 8.46371 307.461 8.78091C307.068 8.72805 306.688 8.82056 306.32 9.05847C305.953 9.29637 305.626 9.58714 305.337 9.93078C305.075 10.2744 304.878 10.5784 304.747 10.8427ZM297.982 30.1129C297.641 30.1129 297.314 30.0336 296.999 29.875C296.684 29.7428 296.422 29.4653 296.212 29.0423C295.924 28.4079 295.78 27.6546 295.78 26.7823C295.78 25.8306 295.924 24.7733 296.212 23.6102C296.501 22.4207 296.881 21.2047 297.353 19.9624C297.536 19.513 297.772 18.9579 298.061 18.297C298.349 17.6362 298.69 16.9754 299.083 16.3145C299.477 15.6537 299.923 15.1118 300.421 14.6888C300.945 14.2395 301.509 14.0148 302.112 14.0148C302.4 14.0148 302.807 14.028 303.331 14.0544C303.856 14.0809 304.236 14.0809 304.472 14.0544C304.315 14.1602 304.131 14.3716 303.921 14.6888C303.711 15.006 303.515 15.3365 303.331 15.6801C303.148 15.9973 303.004 16.2484 302.899 16.4335C302.217 17.808 301.574 19.1694 300.971 20.5175C300.368 21.8656 299.909 23.1608 299.595 24.4032C299.542 24.6147 299.503 24.8262 299.477 25.0376C299.451 25.2491 299.437 25.4474 299.437 25.6324C299.437 26.399 299.687 26.7823 300.185 26.7823C300.395 26.7823 300.617 26.7294 300.853 26.6237C301.116 26.4915 301.417 26.2932 301.758 26.0289C302.361 25.5531 302.885 25.0112 303.331 24.4032C303.856 23.716 304.354 22.989 304.826 22.2224C305.298 21.4294 305.704 20.7025 306.045 20.0417C306.176 19.8302 306.268 19.7245 306.32 19.7245C306.478 19.7245 306.556 19.9491 306.556 20.3985C306.556 20.61 306.517 20.8611 306.438 21.1519C306.386 21.4162 306.294 21.6673 306.163 21.9052C305.796 22.5397 305.363 23.2401 304.865 24.0067C304.367 24.7733 303.856 25.5134 303.331 26.2272C302.964 26.7294 302.479 27.2845 301.876 27.8925C301.273 28.5004 300.631 29.0291 299.949 29.4785C299.267 29.9014 298.612 30.1129 297.982 30.1129Z" fill="white"/>
</g>
<defs>
<filter id="filter0_d_6_11" x="3.375" y="0.375" width="306.833" height="41.3333" filterUnits="userSpaceOnUse" color-interpolation-filters="sRGB">
<feFlood flood-opacity="0" result="BackgroundImageFix"/>
<feColorMatrix in="SourceAlpha" type="matrix" values="0 0 0 0 0 0 0 0 0 0 0 0 0 0 0 0 0 0 127 0" result="hardAlpha"/>
<feOffset dx="1" dy="1"/>
<feGaussianBlur stdDeviation="0.5"/>
<feComposite in2="hardAlpha" operator="out"/>
<feColorMatrix type="matrix" values="0 0 0 0 1 0 0 0 0 1 0 0 0 0 1 0 0 0 0.5 0"/>
<feBlend mode="normal" in2="BackgroundImageFix" result="effect1_dropShadow_6_11"/>
<feBlend mode="normal" in="SourceGraphic" in2="effect1_dropShadow_6_11" result="shape"/>
</filter>
</defs>
</svg>
