<svg width="139" height="38" viewBox="0 0 139 38" fill="none" xmlns="http://www.w3.org/2000/svg">
<g filter="url(#filter0_d_3_2)">
<path d="M21.608 25.064C20.7973 25.064 20.1787 24.8507 19.752 24.424C19.3253 23.9973 19.0373 23.4533 18.888 22.792C18.7387 22.1307 18.6427 21.448 18.6 20.744C18.6 20.3387 18.6213 19.8587 18.664 19.304C18.7067 18.7493 18.76 18.216 18.824 17.704C18.9093 17.1707 18.9733 16.776 19.016 16.52H11.688C10.3227 17.9493 9.02133 19.3467 7.784 20.712C6.568 22.056 5.37333 23.4213 4.2 24.808H1C1.55467 24.296 2.28 23.6133 3.176 22.76C4.09333 21.8853 5.128 20.8933 6.28 19.784C7.432 18.6747 8.62667 17.5013 9.864 16.264C11.1227 15.0053 12.3813 13.7467 13.64 12.488C14.8987 11.208 16.0827 9.98133 17.192 8.808C18.3227 7.61333 19.3253 6.536 20.2 5.576C20.6267 5.10667 21.0213 4.63733 21.384 4.168C21.768 3.67733 22.1947 3.272 22.664 2.952C23.1333 2.632 23.7093 2.472 24.392 2.472H26.696C26.3333 2.81333 25.9707 3.38933 25.608 4.2C25.2453 5.01067 24.9147 5.88533 24.616 6.824C24.3387 7.76267 24.104 8.616 23.912 9.384C23.6347 10.536 23.3467 11.784 23.048 13.128C22.7707 14.472 22.5467 15.8053 22.376 17.128C22.2053 18.4507 22.152 19.6773 22.216 20.808C22.2373 21.2133 22.312 21.64 22.44 22.088C22.5893 22.5147 22.792 22.888 23.048 23.208C23.3253 23.5067 23.6667 23.656 24.072 23.656C24.4347 23.656 24.8293 23.5173 25.256 23.24L25.448 23.528C25.1707 23.9547 24.6373 24.3173 23.848 24.616C23.08 24.9147 22.3333 25.064 21.608 25.064ZM8.808 8.84C8.46667 8.47733 8.21067 8.104 8.04 7.72C7.89067 7.336 7.816 6.97333 7.816 6.632C7.816 6.20533 7.90133 5.8 8.072 5.416C8.264 5.01067 8.488 4.66933 8.744 4.392C9.256 3.816 9.896 3.38933 10.664 3.112C11.432 2.83467 12.2427 2.664 13.096 2.6C13.9707 2.51467 14.8027 2.472 15.592 2.472H22.76C22.312 2.92 21.6293 3.272 20.712 3.528C19.816 3.76267 18.8347 3.944 17.768 4.072C16.7013 4.17867 15.6667 4.28533 14.664 4.392C13.6827 4.47733 12.872 4.59467 12.232 4.744C11.1013 5 10.2373 5.49067 9.64 6.216C9.064 6.94133 8.78667 7.816 8.808 8.84ZM13.096 14.92H19.24C19.496 13.512 19.7947 12.104 20.136 10.696C20.4987 9.288 20.8187 8.05067 21.096 6.984C19.7947 8.22133 18.4613 9.512 17.096 10.856C15.752 12.1787 14.4187 13.5333 13.096 14.92Z" fill="black"/>
<path d="M22.3057 32.744C22.4124 32.5947 22.5511 32.328 22.7218 31.944C22.8924 31.5813 23.0737 31.1867 23.2657 30.76C23.4577 30.3333 23.6178 29.9707 23.7458 29.672C24.1084 28.776 24.5244 27.6773 24.9937 26.376C25.4631 25.096 25.9431 23.752 26.4338 22.344C26.9244 20.936 27.3937 19.592 27.8417 18.312C28.2897 17.032 28.6844 15.976 29.0258 15.144C29.3458 14.376 29.6231 13.768 29.8577 13.32C30.0924 12.8507 30.4231 12.52 30.8498 12.328C31.2978 12.1147 31.9697 12.008 32.8657 12.008H33.8257C33.5271 12.2213 33.1324 12.712 32.6418 13.48C32.1724 14.2267 31.7244 15.016 31.2978 15.848C31.4471 15.656 31.5858 15.4747 31.7138 15.304C31.8418 15.112 31.9804 14.9413 32.1297 14.792C32.8124 13.96 33.5378 13.2667 34.3058 12.712C35.0738 12.1573 35.8204 11.88 36.5457 11.88C37.1431 11.88 37.6444 12.104 38.0498 12.552C38.4764 13 38.6898 13.7573 38.6898 14.824C38.6898 15.8053 38.4978 16.7973 38.1138 17.8C37.7511 18.7813 37.2604 19.72 36.6418 20.616C36.0231 21.4907 35.3404 22.2693 34.5938 22.952C34.4444 23.1013 34.2737 23.2507 34.0817 23.4C33.9111 23.528 33.7297 23.656 33.5378 23.784C34.2204 23.848 34.8924 23.688 35.5537 23.304C36.2364 22.92 36.8551 22.4507 37.4098 21.896C37.9858 21.3413 38.4551 20.84 38.8177 20.392C39.2444 19.8373 39.6711 19.1973 40.0978 18.472C40.5458 17.7467 40.9084 17.1067 41.1857 16.552C41.2711 16.4027 41.3458 16.328 41.4098 16.328C41.5804 16.328 41.6657 16.52 41.6657 16.904C41.6657 17.2453 41.5591 17.5973 41.3457 17.96C41.1751 18.28 40.9404 18.6853 40.6418 19.176C40.3431 19.6667 40.0764 20.0933 39.8418 20.456C38.8604 21.8853 37.7191 23.0587 36.4178 23.976C35.1164 24.8933 33.5484 25.352 31.7138 25.352C31.5644 25.352 31.4044 25.352 31.2337 25.352C31.0844 25.352 30.9244 25.3413 30.7537 25.32C30.2417 25.2773 29.7617 25.1493 29.3137 24.936C28.8657 24.744 28.5671 24.3707 28.4177 23.816L26.6257 29.416C26.3911 30.1627 26.1778 30.7813 25.9858 31.272C25.7724 31.7627 25.5164 32.1253 25.2178 32.36C24.8978 32.616 24.4391 32.744 23.8417 32.744H22.3057ZM30.0177 23.976C30.3804 23.976 30.7964 23.7947 31.2658 23.432C31.7351 23.048 32.1938 22.5787 32.6418 22.024C33.1111 21.448 33.5057 20.8933 33.8257 20.36C34.3164 19.5067 34.7324 18.632 35.0737 17.736C35.4151 16.84 35.5858 16.104 35.5858 15.528C35.5858 14.888 35.3297 14.568 34.8177 14.568C34.3697 14.568 33.8791 14.7813 33.3457 15.208C32.9617 15.5067 32.5244 15.944 32.0338 16.52C31.5644 17.096 31.0951 17.7467 30.6257 18.472C30.1777 19.176 29.8044 19.9013 29.5058 20.648C29.2284 21.3733 29.0898 22.0347 29.0898 22.632C29.0898 22.7387 29.0898 22.8453 29.0898 22.952C29.1111 23.0373 29.1324 23.1333 29.1537 23.24C29.2604 23.7307 29.5484 23.976 30.0177 23.976Z" fill="black"/>
<path d="M34.8995 32.744C35.0062 32.5947 35.1448 32.328 35.3155 31.944C35.4862 31.5813 35.6675 31.1867 35.8595 30.76C36.0515 30.3333 36.2115 29.9707 36.3395 29.672C36.7022 28.776 37.1182 27.6773 37.5875 26.376C38.0568 25.096 38.5368 23.752 39.0275 22.344C39.5182 20.936 39.9875 19.592 40.4355 18.312C40.8835 17.032 41.2782 15.976 41.6195 15.144C41.9395 14.376 42.2168 13.768 42.4515 13.32C42.6862 12.8507 43.0168 12.52 43.4435 12.328C43.8915 12.1147 44.5635 12.008 45.4595 12.008H46.4195C46.1208 12.2213 45.7262 12.712 45.2355 13.48C44.7662 14.2267 44.3182 15.016 43.8915 15.848C44.0408 15.656 44.1795 15.4747 44.3075 15.304C44.4355 15.112 44.5742 14.9413 44.7235 14.792C45.4062 13.96 46.1315 13.2667 46.8995 12.712C47.6675 12.1573 48.4142 11.88 49.1395 11.88C49.7368 11.88 50.2382 12.104 50.6435 12.552C51.0702 13 51.2835 13.7573 51.2835 14.824C51.2835 15.8053 51.0915 16.7973 50.7075 17.8C50.3448 18.7813 49.8542 19.72 49.2355 20.616C48.6168 21.4907 47.9342 22.2693 47.1875 22.952C47.0382 23.1013 46.8675 23.2507 46.6755 23.4C46.5048 23.528 46.3235 23.656 46.1315 23.784C46.8142 23.848 47.4862 23.688 48.1475 23.304C48.8302 22.92 49.4488 22.4507 50.0035 21.896C50.5795 21.3413 51.0488 20.84 51.4115 20.392C51.8382 19.8373 52.2648 19.1973 52.6915 18.472C53.1395 17.7467 53.5022 17.1067 53.7795 16.552C53.8648 16.4027 53.9395 16.328 54.0035 16.328C54.1742 16.328 54.2595 16.52 54.2595 16.904C54.2595 17.2453 54.1528 17.5973 53.9395 17.96C53.7688 18.28 53.5342 18.6853 53.2355 19.176C52.9368 19.6667 52.6702 20.0933 52.4355 20.456C51.4542 21.8853 50.3128 23.0587 49.0115 23.976C47.7102 24.8933 46.1422 25.352 44.3075 25.352C44.1582 25.352 43.9982 25.352 43.8275 25.352C43.6782 25.352 43.5182 25.3413 43.3475 25.32C42.8355 25.2773 42.3555 25.1493 41.9075 24.936C41.4595 24.744 41.1608 24.3707 41.0115 23.816L39.2195 29.416C38.9848 30.1627 38.7715 30.7813 38.5795 31.272C38.3662 31.7627 38.1102 32.1253 37.8115 32.36C37.4915 32.616 37.0328 32.744 36.4355 32.744H34.8995ZM42.6115 23.976C42.9742 23.976 43.3902 23.7947 43.8595 23.432C44.3288 23.048 44.7875 22.5787 45.2355 22.024C45.7048 21.448 46.0995 20.8933 46.4195 20.36C46.9102 19.5067 47.3262 18.632 47.6675 17.736C48.0088 16.84 48.1795 16.104 48.1795 15.528C48.1795 14.888 47.9235 14.568 47.4115 14.568C46.9635 14.568 46.4728 14.7813 45.9395 15.208C45.5555 15.5067 45.1182 15.944 44.6275 16.52C44.1582 17.096 43.6888 17.7467 43.2195 18.472C42.7715 19.176 42.3982 19.9013 42.0995 20.648C41.8222 21.3733 41.6835 22.0347 41.6835 22.632C41.6835 22.7387 41.6835 22.8453 41.6835 22.952C41.7048 23.0373 41.7262 23.1333 41.7475 23.24C41.8542 23.7307 42.1422 23.976 42.6115 23.976Z" fill="black"/>
<path d="M54.1813 25C53.5839 25 53.1359 24.7867 52.8372 24.36C52.5386 23.912 52.3893 23.3147 52.3893 22.568C52.3893 22.4613 52.3893 22.3547 52.3893 22.248C52.3893 22.1413 52.3999 22.0347 52.4212 21.928C52.5279 21.1173 52.7093 20.2 52.9653 19.176C53.2426 18.152 53.5626 17.0747 53.9253 15.944C54.1386 15.304 54.4053 14.504 54.7253 13.544C55.0666 12.5627 55.4612 11.5173 55.9092 10.408C56.3572 9.27733 56.8479 8.15733 57.3812 7.048C57.9359 5.93867 58.5439 4.936 59.2052 4.04C59.8666 3.12267 60.5599 2.38667 61.2853 1.832C62.0319 1.27733 62.8213 1 63.6533 1C64.3359 1 64.8052 1.17067 65.0612 1.512C65.3172 1.832 65.4453 2.216 65.4453 2.664C65.4453 3.13333 65.3599 3.61333 65.1892 4.104C65.0186 4.57333 64.8479 4.968 64.6772 5.288C64.2932 6.056 63.7919 6.92 63.1733 7.88C62.5546 8.84 61.9039 9.736 61.2212 10.568C60.8159 11.1013 60.3146 11.6987 59.7173 12.36C59.1199 13.0213 58.5546 13.6293 58.0213 14.184C57.5093 14.7387 57.1359 15.1227 56.9012 15.336L56.3893 16.808C56.2399 17.2133 56.0906 17.6933 55.9412 18.248C55.8132 18.8027 55.6959 19.3573 55.5892 19.912C55.5039 20.4453 55.4292 20.9147 55.3652 21.32C55.3439 21.4053 55.3333 21.4907 55.3333 21.576C55.3333 21.6613 55.3333 21.736 55.3333 21.8C55.3333 22.44 55.5786 22.76 56.0693 22.76C56.3679 22.76 56.7413 22.6213 57.1893 22.344C57.6159 22.088 58.0213 21.7573 58.4053 21.352C58.8106 20.9253 59.0986 20.6053 59.2692 20.392C59.6959 19.8373 60.1012 19.2507 60.4852 18.632C60.8692 17.992 61.1999 17.4053 61.4772 16.872C61.5839 16.7013 61.6586 16.616 61.7013 16.616C61.8293 16.616 61.8932 16.7973 61.8932 17.16C61.8932 17.3307 61.8612 17.5333 61.7972 17.768C61.7546 17.9813 61.6799 18.184 61.5732 18.376C61.2746 18.888 60.9226 19.4533 60.5173 20.072C60.1119 20.6907 59.6959 21.288 59.2692 21.864C58.9492 22.2907 58.5013 22.7493 57.9253 23.24C57.3493 23.7307 56.7306 24.1467 56.0693 24.488C55.4079 24.8293 54.7786 25 54.1813 25ZM57.5412 13.512C58.6079 12.2533 59.6853 10.9093 60.7733 9.48C61.8826 8.02933 62.7999 6.55733 63.5252 5.064C63.5679 4.95733 63.6639 4.744 63.8133 4.424C63.9626 4.104 64.1013 3.752 64.2293 3.368C64.3573 2.96267 64.4212 2.62133 64.4212 2.344C64.4212 1.98133 64.2826 1.8 64.0052 1.8H63.7812C63.5039 1.8 63.1732 1.992 62.7892 2.376C62.4266 2.76 62.0533 3.272 61.6693 3.912C61.1786 4.72267 60.6986 5.66133 60.2293 6.728C59.7599 7.77333 59.3012 8.88267 58.8532 10.056C58.4052 11.2293 57.9679 12.3813 57.5412 13.512Z" fill="black"/>
<path d="M67.8475 24.36C66.8662 24.872 65.8315 25.128 64.7435 25.128C63.8262 25.128 62.9728 24.904 62.1835 24.456C61.3942 24.008 60.8608 23.2933 60.5835 22.312C60.4555 21.864 60.3915 21.3947 60.3915 20.904C60.3915 20.0933 60.5302 19.2613 60.8075 18.408C61.1062 17.5333 61.4902 16.7333 61.9595 16.008C62.6848 14.8773 63.6022 13.9387 64.7115 13.192C65.8208 12.4453 67.0475 12.072 68.3915 12.072C69.3942 12.072 70.1728 12.328 70.7275 12.84C71.2822 13.352 71.5595 13.9493 71.5595 14.632C71.5595 15.4427 71.2822 16.1573 70.7275 16.776C70.1942 17.3733 69.4902 17.832 68.6155 18.152C68.1888 18.3013 67.7302 18.4187 67.2395 18.504C66.7702 18.568 66.3222 18.6 65.8955 18.6C65.0208 18.6 64.3488 18.4827 63.8795 18.248C63.4742 19.2933 63.2715 20.2533 63.2715 21.128C63.2715 21.9173 63.4528 22.568 63.8155 23.08C64.1782 23.5707 64.7542 23.816 65.5435 23.816C66.2048 23.816 66.8555 23.6347 67.4955 23.272C68.1568 22.9093 68.7648 22.4613 69.3195 21.928C69.8955 21.3947 70.3755 20.8827 70.7595 20.392C71.0582 20.0293 71.3142 19.688 71.5275 19.368C71.7408 19.048 71.9648 18.6853 72.1995 18.28C72.4342 17.8533 72.7115 17.3307 73.0315 16.712C73.1168 16.5627 73.1915 16.488 73.2555 16.488C73.3835 16.488 73.4475 16.6587 73.4475 17C73.4475 17.192 73.4155 17.4053 73.3515 17.64C73.3088 17.8533 73.2235 18.0773 73.0955 18.312C72.7968 18.8453 72.4342 19.432 72.0075 20.072C71.6022 20.6907 71.1862 21.288 70.7595 21.864C70.3755 22.376 69.9382 22.8453 69.4475 23.272C68.9568 23.6987 68.4235 24.0613 67.8475 24.36ZM64.9355 17.544C65.0422 17.608 65.1595 17.6507 65.2875 17.672C65.4155 17.6933 65.5435 17.704 65.6715 17.704C66.0982 17.704 66.5248 17.608 66.9515 17.416C67.3782 17.2027 67.7408 16.9893 68.0395 16.776C68.5302 16.4347 68.9462 16.0293 69.2875 15.56C69.6288 15.0907 69.8208 14.5573 69.8635 13.96C69.8848 13.704 69.8208 13.4907 69.6715 13.32C69.5435 13.128 69.3088 13.032 68.9675 13.032C68.7968 13.032 68.5835 13.064 68.3275 13.128C67.9862 13.2133 67.6448 13.3733 67.3035 13.608C66.9622 13.8427 66.6315 14.12 66.3115 14.44C66.2048 14.5467 66.0128 14.76 65.7355 15.08C65.4795 15.3787 65.2342 15.72 64.9995 16.104C64.7648 16.4667 64.6475 16.7867 64.6475 17.064C64.6475 17.2987 64.7435 17.4587 64.9355 17.544Z" fill="black"/>
<path d="M81.806 23.944C81.5287 23.7093 81.3367 23.4213 81.23 23.08C81.1233 22.7387 81.07 22.3653 81.07 21.96C81.07 21.704 81.0807 21.448 81.102 21.192C81.1447 20.9147 81.1873 20.6373 81.23 20.36C81.4007 19.5067 81.6887 18.4933 82.094 17.32C82.5207 16.1467 83.0007 14.92 83.534 13.64C84.0887 12.36 84.6433 11.1227 85.198 9.928C85.774 8.712 86.286 7.64533 86.734 6.728C87.2033 5.78933 87.5553 5.096 87.79 4.648C87.8753 4.47733 87.95 4.31733 88.014 4.168C88.0993 4.01867 88.1847 3.88 88.27 3.752L87.118 3.912C86.158 4.04 85.166 4.24267 84.142 4.52C83.1393 4.79733 82.2327 5.16 81.422 5.608C80.6327 6.03467 80.0567 6.55733 79.694 7.176C79.6727 7.24 79.63 7.272 79.566 7.272C79.5233 7.272 79.4913 7.22933 79.47 7.144C79.4273 7.05867 79.4167 6.96267 79.438 6.856C79.6513 6.30133 79.918 5.768 80.238 5.256C80.558 4.744 80.8673 4.33867 81.166 4.04C81.6353 3.54933 82.2753 3.19733 83.086 2.984C83.8967 2.77067 84.7287 2.632 85.582 2.568C86.4567 2.504 87.2033 2.472 87.822 2.472H94.126C95.598 2.472 96.7713 2.696 97.646 3.144C98.542 3.592 99.182 4.18933 99.566 4.936C99.95 5.66133 100.099 6.44 100.014 7.272C99.9287 8.168 99.6727 8.94667 99.246 9.608C98.8193 10.2693 98.286 10.8347 97.646 11.304C97.0273 11.752 96.3767 12.1147 95.694 12.392C95.0327 12.648 94.414 12.84 93.838 12.968C95.63 13.3093 96.91 13.896 97.678 14.728C98.446 15.56 98.83 16.552 98.83 17.704C98.83 18.6213 98.606 19.4853 98.158 20.296C97.7313 21.0853 97.1447 21.8 96.398 22.44C95.758 22.9947 94.9153 23.496 93.87 23.944C92.8247 24.3707 91.694 24.712 90.478 24.968C89.262 25.224 88.0567 25.352 86.862 25.352C85.8593 25.352 84.91 25.2347 84.014 25C83.118 24.7867 82.382 24.4347 81.806 23.944ZM85.71 23.944C86.0087 23.9867 86.3073 24.0187 86.606 24.04C86.9047 24.0613 87.2033 24.072 87.502 24.072C88.5473 24.072 89.5713 23.9227 90.574 23.624C91.5767 23.304 92.4513 22.8027 93.198 22.12C93.966 21.4373 94.51 20.5413 94.83 19.432C95.022 18.8133 95.118 18.184 95.118 17.544C95.118 16.5413 94.862 15.6453 94.35 14.856C93.8593 14.0453 93.0807 13.576 92.014 13.448C91.7793 13.512 91.4273 13.5867 90.958 13.672C90.4887 13.7573 89.998 13.832 89.486 13.896C88.974 13.96 88.5367 13.992 88.174 13.992C87.8327 13.992 87.662 13.9173 87.662 13.768C87.662 13.64 87.758 13.4907 87.95 13.32C88.142 13.128 88.3553 12.968 88.59 12.84C88.8247 12.6907 89.0167 12.6053 89.166 12.584C89.55 12.52 89.998 12.488 90.51 12.488C90.7873 12.488 91.0647 12.4987 91.342 12.52C91.6407 12.5413 91.95 12.5733 92.27 12.616C92.9527 12.4027 93.518 12.1147 93.966 11.752C94.414 11.3893 94.798 11.048 95.118 10.728C95.63 10.1947 96.0247 9.58667 96.302 8.904C96.5793 8.2 96.718 7.51733 96.718 6.856C96.718 5.98133 96.5047 5.30933 96.078 4.84C95.6727 4.34933 95.1287 3.99733 94.446 3.784C93.7633 3.57067 93.0273 3.45333 92.238 3.432C91.854 3.944 91.4487 4.552 91.022 5.256C90.6167 5.93867 90.2327 6.64267 89.87 7.368C89.5073 8.09333 89.1873 8.76533 88.91 9.384C88.3127 10.664 87.6833 12.0613 87.022 13.576C86.382 15.0907 85.8487 16.5627 85.422 17.992C85.2087 18.6533 84.9953 19.368 84.782 20.136C84.59 20.8827 84.494 21.5547 84.494 22.152C84.494 22.6213 84.5793 23.016 84.75 23.336C84.9207 23.656 85.2407 23.8587 85.71 23.944Z" fill="black"/>
<path d="M106.556 9.448C106.001 9.256 105.724 8.89333 105.724 8.36C105.724 7.86933 105.916 7.368 106.3 6.856C106.705 6.32267 107.142 5.98133 107.612 5.832C107.718 5.78933 107.804 5.768 107.868 5.768C107.953 5.768 108.038 5.768 108.124 5.768C108.486 5.768 108.785 5.87467 109.02 6.088C109.254 6.30133 109.372 6.54667 109.372 6.824C109.372 7.208 109.169 7.528 108.764 7.784C108.444 7.74133 108.134 7.816 107.836 8.008C107.537 8.2 107.27 8.43467 107.036 8.712C106.822 8.98933 106.662 9.23467 106.556 9.448ZM101.052 25C100.774 25 100.508 24.936 100.252 24.808C99.9957 24.7013 99.7824 24.4773 99.6117 24.136C99.3771 23.624 99.2598 23.016 99.2598 22.312C99.2598 21.544 99.3771 20.6907 99.6117 19.752C99.8464 18.792 100.156 17.8107 100.54 16.808C100.689 16.4453 100.881 15.9973 101.116 15.464C101.35 14.9307 101.628 14.3973 101.948 13.864C102.268 13.3307 102.63 12.8933 103.036 12.552C103.462 12.1893 103.921 12.008 104.412 12.008C104.646 12.008 104.977 12.0187 105.404 12.04C105.83 12.0613 106.14 12.0613 106.332 12.04C106.204 12.1253 106.054 12.296 105.884 12.552C105.713 12.808 105.553 13.0747 105.404 13.352C105.254 13.608 105.137 13.8107 105.052 13.96C104.497 15.0693 103.974 16.168 103.484 17.256C102.993 18.344 102.62 19.3893 102.364 20.392C102.321 20.5627 102.289 20.7333 102.268 20.904C102.246 21.0747 102.236 21.2347 102.236 21.384C102.236 22.0027 102.438 22.312 102.844 22.312C103.014 22.312 103.196 22.2693 103.388 22.184C103.601 22.0773 103.846 21.9173 104.124 21.704C104.614 21.32 105.041 20.8827 105.404 20.392C105.83 19.8373 106.236 19.2507 106.62 18.632C107.004 17.992 107.334 17.4053 107.612 16.872C107.718 16.7013 107.793 16.616 107.836 16.616C107.964 16.616 108.028 16.7973 108.028 17.16C108.028 17.3307 107.996 17.5333 107.932 17.768C107.889 17.9813 107.814 18.184 107.708 18.376C107.409 18.888 107.057 19.4533 106.652 20.072C106.246 20.6907 105.83 21.288 105.404 21.864C105.105 22.2693 104.71 22.7173 104.22 23.208C103.729 23.6987 103.206 24.1253 102.652 24.488C102.097 24.8293 101.564 25 101.052 25Z" fill="black"/>
<path d="M116.341 25C115.701 25 115.253 24.7653 114.997 24.296C114.763 23.8053 114.645 23.1973 114.645 22.472C114.645 22.1307 114.667 21.7893 114.709 21.448C114.752 21.0853 114.805 20.7227 114.869 20.36C114.912 20.04 114.997 19.656 115.125 19.208C115.253 18.7387 115.403 18.2373 115.573 17.704C115.168 18.5147 114.699 19.3467 114.165 20.2C113.632 21.032 113.045 21.8107 112.405 22.536C111.787 23.24 111.136 23.816 110.453 24.264C109.792 24.6907 109.12 24.904 108.437 24.904C107.84 24.904 107.328 24.6907 106.901 24.264C106.496 23.816 106.293 23.048 106.293 21.96C106.293 20.8507 106.485 19.7093 106.869 18.536C107.253 17.3627 107.787 16.2747 108.469 15.272C109.173 14.248 109.995 13.4267 110.933 12.808C111.893 12.1893 112.939 11.88 114.069 11.88C114.539 11.88 115.061 11.976 115.637 12.168C116.213 12.36 116.651 12.7333 116.949 13.288C117.056 13.1173 117.141 12.9467 117.205 12.776C117.269 12.6053 117.333 12.456 117.397 12.328C117.909 11.1973 118.347 10.1307 118.709 9.128C119.072 8.12533 119.392 7.34667 119.669 6.792C120.032 6.06667 120.32 5.52267 120.533 5.16C120.747 4.776 120.939 4.50933 121.109 4.36C121.301 4.21067 121.515 4.104 121.749 4.04C121.941 3.99733 122.155 3.96533 122.389 3.944C122.624 3.92267 122.869 3.912 123.125 3.912C123.381 3.912 123.669 3.912 123.989 3.912C124.331 3.912 124.544 3.90133 124.629 3.88C124.267 4.136 123.84 4.65867 123.349 5.448C122.859 6.23733 122.347 7.18667 121.813 8.296C121.28 9.40533 120.757 10.5893 120.245 11.848C119.755 13.0853 119.296 14.3227 118.869 15.56C118.464 16.776 118.133 17.8853 117.877 18.888C117.643 19.8907 117.525 20.7013 117.525 21.32C117.525 22.0027 117.717 22.344 118.101 22.344C118.357 22.344 118.656 22.216 118.997 21.96C119.36 21.704 119.691 21.416 119.989 21.096C120.288 20.776 120.501 20.5413 120.629 20.392C121.056 19.8373 121.461 19.2507 121.845 18.632C122.229 17.992 122.56 17.3947 122.837 16.84C122.944 16.6693 123.019 16.584 123.061 16.584C123.211 16.584 123.285 16.776 123.285 17.16C123.285 17.5653 123.179 17.9493 122.965 18.312C122.667 18.824 122.304 19.4 121.877 20.04C121.472 20.6587 121.056 21.2667 120.629 21.864C120.331 22.248 119.936 22.6853 119.445 23.176C118.976 23.6667 118.464 24.0933 117.909 24.456C117.376 24.8187 116.853 25 116.341 25ZM109.877 22.216C109.941 22.2373 110.037 22.248 110.165 22.248C110.763 22.248 111.456 21.8533 112.245 21.064C113.056 20.2533 113.867 19.1973 114.677 17.896C114.848 17.64 115.051 17.2773 115.285 16.808C115.52 16.3387 115.765 15.8267 116.021 15.272C116.299 14.696 116.555 14.1627 116.789 13.672C116.64 13.4587 116.448 13.3093 116.213 13.224C116 13.1387 115.765 13.096 115.509 13.096C115.04 13.096 114.539 13.224 114.005 13.48C113.472 13.7147 113.024 14.0133 112.661 14.376C112.107 14.9307 111.573 15.6453 111.061 16.52C110.571 17.3947 110.165 18.2587 109.845 19.112C109.547 19.9653 109.397 20.68 109.397 21.256C109.397 21.7893 109.557 22.1093 109.877 22.216Z" fill="black"/>
<path d="M125.64 25.448C124.915 25.448 124.232 25.352 123.592 25.16C122.952 24.968 122.429 24.6693 122.024 24.264C121.619 23.8587 121.416 23.3467 121.416 22.728C121.416 22.2587 121.555 21.8 121.832 21.352C122.131 20.904 122.547 20.68 123.08 20.68C123.315 20.68 123.528 20.7333 123.72 20.84C123.912 20.9467 124.04 21.0853 124.104 21.256C124.083 21.2773 124.029 21.352 123.944 21.48C123.859 21.5867 123.805 21.6613 123.784 21.704C123.592 22.088 123.496 22.44 123.496 22.76C123.496 23.208 123.656 23.5707 123.976 23.848C124.317 24.1253 124.755 24.264 125.288 24.264C125.992 24.2427 126.6 23.9973 127.112 23.528C127.645 23.0373 127.912 22.4613 127.912 21.8C127.912 21.416 127.827 21.0533 127.656 20.712C127.379 20.136 127.005 19.6453 126.536 19.24C126.088 18.8133 125.651 18.3867 125.224 17.96C124.819 17.5333 124.52 17.0213 124.328 16.424C124.243 16.1467 124.2 15.8053 124.2 15.4C124.2 14.9947 124.253 14.6 124.36 14.216C124.467 13.8107 124.627 13.4693 124.84 13.192C125.139 12.7867 125.587 12.4133 126.184 12.072C126.931 11.6667 127.805 11.464 128.808 11.464C129.469 11.464 130.056 11.5493 130.568 11.72C130.952 11.848 131.283 12.0613 131.56 12.36C131.859 12.6373 132.008 13.0107 132.008 13.48C132.008 14.0133 131.837 14.5253 131.496 15.016C131.176 15.4853 130.707 15.7733 130.088 15.88C129.704 15.9227 129.363 15.8587 129.064 15.688C128.765 15.496 128.659 15.144 128.744 14.632C129.32 14.504 129.736 14.2693 129.992 13.928C130.12 13.736 130.184 13.544 130.184 13.352C130.184 12.9893 130.035 12.744 129.736 12.616C129.459 12.4667 129.192 12.392 128.936 12.392C128.616 12.392 128.307 12.4347 128.008 12.52C127.731 12.584 127.475 12.7013 127.24 12.872C126.771 13.2773 126.536 13.7467 126.536 14.28C126.536 14.3653 126.547 14.4613 126.568 14.568C126.611 14.6747 126.643 14.7813 126.664 14.888C126.771 15.1653 126.931 15.4213 127.144 15.656C127.357 15.8907 127.571 16.0933 127.784 16.264C128.317 16.648 128.861 17.064 129.416 17.512C129.992 17.96 130.419 18.504 130.696 19.144C130.909 19.592 131.016 20.0507 131.016 20.52C131.016 21.16 130.856 21.7467 130.536 22.28C130.216 22.792 129.853 23.1973 129.448 23.496C130.152 23.1973 130.835 22.6747 131.496 21.928C132.179 21.16 132.765 20.4027 133.256 19.656C133.576 19.1653 133.864 18.7067 134.12 18.28C134.397 17.832 134.675 17.3413 134.952 16.808C135.037 16.6587 135.112 16.584 135.176 16.584C135.304 16.584 135.368 16.7653 135.368 17.128C135.368 17.2773 135.336 17.4587 135.272 17.672C135.229 17.8853 135.155 18.0987 135.048 18.312C134.664 18.952 134.301 19.5493 133.96 20.104C133.619 20.6373 133.203 21.224 132.712 21.864C131.731 23.1653 130.685 24.0933 129.576 24.648C128.467 25.1813 127.155 25.448 125.64 25.448Z" fill="black"/>
</g>
<path d="M1 37.5H128M44 32.5H137" stroke="black"/>
<defs>
<filter id="filter0_d_3_2" x="0" y="0" width="138.368" height="35.744" filterUnits="userSpaceOnUse" color-interpolation-filters="sRGB">
<feFlood flood-opacity="0" result="BackgroundImageFix"/>
<feColorMatrix in="SourceAlpha" type="matrix" values="0 0 0 0 0 0 0 0 0 0 0 0 0 0 0 0 0 0 127 0" result="hardAlpha"/>
<feOffset dx="1" dy="1"/>
<feGaussianBlur stdDeviation="1"/>
<feComposite in2="hardAlpha" operator="out"/>
<feColorMatrix type="matrix" values="0 0 0 0 0 0 0 0 0 0 0 0 0 0 0 0 0 0 0.5 0"/>
<feBlend mode="normal" in2="BackgroundImageFix" result="effect1_dropShadow_3_2"/>
<feBlend mode="normal" in="SourceGraphic" in2="effect1_dropShadow_3_2" result="shape"/>
</filter>
</defs>
</svg>
